<svg width="100" height="100" viewBox="0 0 100 100" fill="none" xmlns="http://www.w3.org/2000/svg">
<rect x="7.75" y="84.25" width="83.5" height="6.5" rx="3.25" stroke="#222222" stroke-width="1.5"/>
<path d="M13 83.5V46" stroke="#222222" stroke-width="1.5"/>
<path d="M86 83.5V47" stroke="#222222" stroke-width="1.5"/>
<path d="M90.5 38L85.2674 26.5833C85.1045 26.2279 84.7493 26 84.3583 26H14.1417C13.7507 26 13.3955 26.2279 13.2326 26.5833L8.6493 36.5833C8.34571 37.2457 8.82972 38 9.55837 38H74M90.5 38C90.8333 41 89.4 47 83 47C76 47 74 42 74 38M90.5 38H74" stroke="#222222" stroke-width="1.5"/>
<path d="M74 38C74 41 72.5 47 66 47C59.5 47 58 41 58 38" stroke="#222222" stroke-width="1.5"/>
<path d="M58 38C58 41 56.5 47 50 47C43.5 47 42 41 42 38" stroke="#222222" stroke-width="1.5"/>
<path d="M42 38C42 41 40.5 47 34 47C27.5 47 26 41 26 38" stroke="#222222" stroke-width="1.5"/>
<path d="M26 38C26 41 23.5 47 17 47C10.5 47 9 41 9 38" stroke="#222222" stroke-width="1.5"/>
<mask id="path-9-inside-1_333_2250" fill="white">
<rect x="52" y="54.5" width="23" height="19" rx="1"/>
</mask>
<rect x="52" y="54.5" width="23" height="19" rx="1" stroke="#222222" stroke-width="3" mask="url(#path-9-inside-1_333_2250)"/>
<path d="M41 84.5V55.5C41 54.9477 40.5523 54.5 40 54.5H26C25.4477 54.5 25 54.9477 25 55.5V84.5" stroke="#222222" stroke-width="1.5"/>
<path d="M41 69.5H23C22.4477 69.5 22 69.9477 22 70.5V72" stroke="#222222" stroke-width="1.5" stroke-linecap="round"/>
<path fill-rule="evenodd" clip-rule="evenodd" d="M48.7673 37.5887C45.4366 33.3446 39.8712 24.9383 39.5001 19C39.0314 11.5 46.5001 9 49.5001 9C52.5001 9 60.0001 10.5 60.0001 19C60.0001 24.2454 54.0352 33.0739 50.261 37.6095C49.8674 38.0825 49.1472 38.0728 48.7673 37.5887ZM49.5001 24.5C52.5377 24.5 55.0001 22.0376 55.0001 19C55.0001 15.9624 52.5377 13.5 49.5001 13.5C46.4626 13.5 44.0001 15.9624 44.0001 19C44.0001 22.0376 46.4626 24.5 49.5001 24.5Z" fill="url(#paint0_linear_333_2250)"/>
<path d="M39.5001 19L38.7516 19.0468L39.5001 19ZM48.7673 37.5887L48.1773 38.0517H48.1773L48.7673 37.5887ZM60.0001 19H59.2501H60.0001ZM50.261 37.6095L50.8375 38.0892L50.8375 38.0892L50.261 37.6095ZM38.7516 19.0468C38.9479 22.1882 40.5008 25.8952 42.3665 29.2909C44.2444 32.7085 46.4928 35.9052 48.1773 38.0517L49.3573 37.1257C47.7112 35.0281 45.5114 31.8996 43.6812 28.5685C41.8388 25.2154 40.4234 21.7501 40.2486 18.9532L38.7516 19.0468ZM49.5001 8.25C47.8489 8.25 45.078 8.92092 42.7629 10.5776C40.41 12.2612 38.4982 14.9921 38.7516 19.0468L40.2486 18.9532C40.0333 15.5079 41.6215 13.2388 43.6358 11.7974C45.6878 10.3291 48.1513 9.75 49.5001 9.75V8.25ZM60.7501 19C60.7501 14.4823 58.7344 11.7493 56.2789 10.1805C53.8712 8.64226 51.0917 8.25 49.5001 8.25V9.75C50.9085 9.75 53.3789 10.1077 55.4713 11.4445C57.5157 12.7507 59.2501 15.0177 59.2501 19H60.7501ZM50.8375 38.0892C52.748 35.7933 55.2089 32.4167 57.1968 28.9435C59.1628 25.5084 60.7501 21.8381 60.7501 19H59.2501C59.2501 21.4073 57.8549 24.7739 55.8949 28.1984C53.9568 31.5847 51.5482 34.8901 49.6845 37.1298L50.8375 38.0892ZM48.1773 38.0517C48.8525 38.9121 50.139 38.9287 50.8375 38.0892L49.6845 37.1298C49.5959 37.2363 49.4418 37.2334 49.3573 37.1257L48.1773 38.0517ZM54.2501 19C54.2501 21.6234 52.1235 23.75 49.5001 23.75V25.25C52.9519 25.25 55.7501 22.4518 55.7501 19H54.2501ZM49.5001 14.25C52.1235 14.25 54.2501 16.3766 54.2501 19H55.7501C55.7501 15.5482 52.9519 12.75 49.5001 12.75V14.25ZM44.7501 19C44.7501 16.3766 46.8768 14.25 49.5001 14.25V12.75C46.0484 12.75 43.2501 15.5482 43.2501 19H44.7501ZM49.5001 23.75C46.8768 23.75 44.7501 21.6234 44.7501 19H43.2501C43.2501 22.4518 46.0484 25.25 49.5001 25.25V23.75Z" fill="#222222"/>
<circle cx="49.5" cy="19" r="5.5" stroke="#222222" stroke-width="1.5"/>
<defs>
<linearGradient id="paint0_linear_333_2250" x1="49.7395" y1="9" x2="49.7395" y2="37.9581" gradientUnits="userSpaceOnUse">
<stop offset="0.338542" stop-color="#F61003"/>
<stop offset="1" stop-color="#F49402"/>
</linearGradient>
</defs>
</svg>
