<svg width="18" height="18" viewBox="0 0 18 18" fill="none" xmlns="http://www.w3.org/2000/svg">
<path d="M0 3C0 1.34315 1.34315 0 3 0H15C16.6569 0 18 1.34315 18 3V15C18 16.6569 16.6569 18 15 18H3C1.34315 18 0 16.6569 0 15V3Z" fill="#C5C4C4"/>
<path d="M3.3999 9.63281C3.3999 9.0253 3.89239 8.53281 4.4999 8.53281C5.10742 8.53281 5.5999 9.0253 5.5999 9.63281V13.2661C5.5999 13.8737 5.10742 14.3661 4.4999 14.3661C3.89239 14.3661 3.3999 13.8737 3.3999 13.2661V9.63281Z" fill="white"/>
<path d="M7.8999 11.2998C7.8999 10.6923 8.39239 10.1998 8.9999 10.1998C9.60742 10.1998 10.0999 10.6923 10.0999 11.2998V13.2665C10.0999 13.874 9.60742 14.3665 8.9999 14.3665C8.39239 14.3665 7.8999 13.874 7.8999 13.2665V11.2998Z" fill="white"/>
<path d="M12.3999 5.29981C12.3999 4.69229 12.8924 4.1998 13.4999 4.1998C14.1074 4.1998 14.5999 4.69229 14.5999 5.2998V13.2665C14.5999 13.874 14.1074 14.3665 13.4999 14.3665C12.8924 14.3665 12.3999 13.874 12.3999 13.2665V5.29981Z" fill="#8A8A8A"/>
</svg>
