<svg width="17" height="16" viewBox="0 0 17 16" fill="none" xmlns="http://www.w3.org/2000/svg">
<path fill-rule="evenodd" clip-rule="evenodd" d="M8.14893 11.6667C10.174 11.6667 11.8156 10.025 11.8156 8C11.8156 5.97496 10.174 4.33333 8.14893 4.33333C6.12388 4.33333 4.48226 5.97496 4.48226 8C4.48226 10.025 6.12388 11.6667 8.14893 11.6667ZM8.14893 12.6667C10.7263 12.6667 12.8156 10.5773 12.8156 8C12.8156 5.42267 10.7263 3.33333 8.14893 3.33333C5.5716 3.33333 3.48226 5.42267 3.48226 8C3.48226 10.5773 5.5716 12.6667 8.14893 12.6667Z" fill="#4E4E4E"/>
<path fill-rule="evenodd" clip-rule="evenodd" d="M16.1489 8C16.1489 8.27614 15.9251 8.5 15.6489 8.5H13.9823C13.7061 8.5 13.4823 8.27614 13.4823 8C13.4823 7.72386 13.7061 7.5 13.9823 7.5L15.6489 7.5C15.9251 7.5 16.1489 7.72386 16.1489 8ZM2.81559 8C2.81559 8.27614 2.59173 8.5 2.31559 8.5H0.648926C0.372784 8.5 0.148926 8.27614 0.148926 8C0.148926 7.72386 0.372784 7.5 0.648926 7.5H2.31559C2.59173 7.5 2.81559 7.72386 2.81559 8Z" fill="#4E4E4E"/>
<path fill-rule="evenodd" clip-rule="evenodd" d="M13.8057 2.34322C14.001 2.53849 14.001 2.85507 13.8057 3.05033L12.6272 4.22884C12.4319 4.4241 12.1153 4.4241 11.9201 4.22884C11.7248 4.03358 11.7248 3.717 11.9201 3.52173L13.0986 2.34322C13.2939 2.14796 13.6104 2.14796 13.8057 2.34322ZM4.37761 11.7713C4.57287 11.9666 4.57287 12.2832 4.37761 12.4784L3.1991 13.6569C3.00384 13.8522 2.68726 13.8522 2.49199 13.6569C2.29673 13.4617 2.29673 13.1451 2.49199 12.9498L3.67051 11.7713C3.86577 11.5761 4.18235 11.5761 4.37761 11.7713Z" fill="#4E4E4E"/>
<path fill-rule="evenodd" clip-rule="evenodd" d="M8.14893 0C8.42507 1.19209e-07 8.64893 0.223858 8.64893 0.5V2.16667C8.64893 2.44281 8.42507 2.66667 8.14893 2.66667C7.87278 2.66667 7.64893 2.44281 7.64893 2.16667L7.64893 0.5C7.64893 0.223857 7.87278 -1.19209e-07 8.14893 0ZM8.14893 13.3333C8.42507 13.3333 8.64893 13.5572 8.64893 13.8333V15.5C8.64893 15.7761 8.42507 16 8.14893 16C7.87278 16 7.64893 15.7761 7.64893 15.5V13.8333C7.64893 13.5572 7.87278 13.3333 8.14893 13.3333Z" fill="#4E4E4E"/>
<path fill-rule="evenodd" clip-rule="evenodd" d="M2.49215 2.34322C2.68741 2.14796 3.00399 2.14796 3.19926 2.34322L4.37777 3.52174C4.57303 3.717 4.57303 4.03358 4.37777 4.22884C4.18251 4.4241 3.86592 4.4241 3.67066 4.22884L2.49215 3.05033C2.29689 2.85507 2.29689 2.53849 2.49215 2.34322ZM11.9202 11.7713C12.1155 11.5761 12.4321 11.5761 12.6273 11.7713L13.8059 12.9498C14.0011 13.1451 14.0011 13.4617 13.8059 13.6569C13.6106 13.8522 13.294 13.8522 13.0988 13.6569L11.9202 12.4784C11.725 12.2832 11.725 11.9666 11.9202 11.7713Z" fill="#4E4E4E"/>
</svg>
