<svg width="66" height="71" viewBox="0 0 66 71" fill="none" xmlns="http://www.w3.org/2000/svg">
<rect x="8.625" y="0.416626" width="40.5" height="65.25" rx="4.625" stroke="#222222" stroke-width="0.75"/>
<path d="M9.03913 9.66663H48.5836" stroke="#222222" stroke-width="0.75" stroke-linecap="round" stroke-linejoin="round"/>
<path d="M8.5 54.5835H48.5" stroke="#222222" stroke-width="0.75" stroke-linecap="round" stroke-linejoin="round"/>
<rect x="26.5834" y="3.70825" width="3.66667" height="1.83333" rx="0.916667" fill="#222222"/>
<rect x="26.5834" y="58.7083" width="3.66667" height="1.83333" rx="0.916667" fill="#222222"/>
<rect x="0.375" y="17.875" width="19.25" height="28.25" rx="4.625" stroke="#222222" stroke-width="0.75"/>
<rect x="7.125" y="17.625" width="2.75" height="28.75" fill="url(#paint0_linear_1421_1838)" stroke="#222222" stroke-width="0.25"/>
<path d="M32.375 28.8748H65.625V65.4998C65.625 68.0541 63.5543 70.1248 61 70.1248H37C34.4457 70.1248 32.375 68.0541 32.375 65.4998V28.8748Z" fill="url(#paint1_linear_1421_1838)" stroke="#222222" stroke-width="0.75"/>
<path d="M41.25 28.4583C40.9444 25.5556 41.6166 19.75 46.75 19.75C51.8833 19.75 53.1666 25.5556 53.1666 28.4583" stroke="#222222" stroke-width="0.75" stroke-linecap="round" stroke-linejoin="round"/>
<path d="M45.8333 28.4583C45.5278 25.5556 46.2 19.75 51.3333 19.75C56.4667 19.75 57.75 25.5556 57.75 28.4583" stroke="#222222" stroke-width="0.75" stroke-linecap="round" stroke-linejoin="round"/>
<defs>
<linearGradient id="paint0_linear_1421_1838" x1="8.5" y1="17.5" x2="8.5" y2="46.5" gradientUnits="userSpaceOnUse">
<stop offset="0.338542" stop-color="#FF5E55"/>
<stop offset="1" stop-color="#FFC978"/>
</linearGradient>
<linearGradient id="paint1_linear_1421_1838" x1="49" y1="28.4998" x2="49" y2="70.4998" gradientUnits="userSpaceOnUse">
<stop offset="0.338542" stop-color="#FA6259"/>
<stop offset="1" stop-color="#FFC269"/>
</linearGradient>
</defs>
</svg>
