<svg width="27" height="28" viewBox="0 0 27 28" fill="none" xmlns="http://www.w3.org/2000/svg">
<path d="M22.8337 0.666504H4.16699C3.10613 0.666504 2.08871 1.08793 1.33857 1.83808C0.58842 2.58822 0.166992 3.60564 0.166992 4.6665V23.3332C0.166992 24.394 0.58842 25.4115 1.33857 26.1616C2.08871 26.9117 3.10613 27.3332 4.16699 27.3332H22.8337C23.8945 27.3332 24.9119 26.9117 25.6621 26.1616C26.4122 25.4115 26.8337 24.394 26.8337 23.3332V4.6665C26.8337 3.60564 26.4122 2.58822 25.6621 1.83808C24.9119 1.08793 23.8945 0.666504 22.8337 0.666504ZM10.8337 3.33317H16.167V7.5065L14.2337 6.17317C14.016 6.0298 13.761 5.95339 13.5003 5.95339C13.2397 5.95339 12.9847 6.0298 12.767 6.17317L10.8337 7.5065V3.33317ZM24.167 23.3332C24.167 23.6868 24.0265 24.0259 23.7765 24.276C23.5264 24.526 23.1873 24.6665 22.8337 24.6665H4.16699C3.81337 24.6665 3.47423 24.526 3.22418 24.276C2.97413 24.0259 2.83366 23.6868 2.83366 23.3332V4.6665C2.83366 4.31288 2.97413 3.97374 3.22418 3.7237C3.47423 3.47365 3.81337 3.33317 4.16699 3.33317H8.16699V9.99984C8.16764 10.241 8.2337 10.4776 8.35814 10.6842C8.48259 10.8908 8.66075 11.0598 8.87366 11.1732C9.08216 11.2802 9.31519 11.3304 9.54927 11.3187C9.78335 11.307 10.0102 11.2338 10.207 11.1065L13.5003 8.93317L16.767 11.1065C16.9675 11.2386 17.2 11.314 17.4399 11.3249C17.6797 11.3358 17.9181 11.2817 18.1298 11.1684C18.3414 11.055 18.5186 10.8866 18.6425 10.6809C18.7664 10.4753 18.8324 10.2399 18.8337 9.99984V3.33317H22.8337C23.1873 3.33317 23.5264 3.47365 23.7765 3.7237C24.0265 3.97374 24.167 4.31288 24.167 4.6665V23.3332Z" fill="#5D4F3B"/>
</svg>
