<svg width="28" height="28" viewBox="0 0 28 28" fill="none" xmlns="http://www.w3.org/2000/svg">
<path d="M23.3337 8.6665H22.0003V4.6665C22.0003 3.60564 21.5789 2.58822 20.8288 1.83808C20.0786 1.08793 19.0612 0.666504 18.0003 0.666504H4.66699C3.60613 0.666504 2.58871 1.08793 1.83857 1.83808C1.08842 2.58822 0.666992 3.60564 0.666992 4.6665V20.6665C0.668306 20.9297 0.747509 21.1867 0.89462 21.405C1.04173 21.6233 1.25017 21.7931 1.49366 21.8932C1.6519 21.9678 1.82542 22.0043 2.00033 21.9998C2.1758 22.0009 2.34975 21.9672 2.5122 21.9009C2.67465 21.8345 2.82241 21.7367 2.94699 21.6132L6.69366 17.8532H8.66699V19.7732C8.66699 20.834 9.08842 21.8515 9.83856 22.6016C10.5887 23.3517 11.6061 23.7732 12.667 23.7732H21.8937L25.0537 26.9465C25.1782 27.0701 25.326 27.1678 25.4884 27.2342C25.6509 27.3006 25.8249 27.3342 26.0003 27.3332C26.1752 27.3377 26.3488 27.3011 26.507 27.2265C26.7505 27.1265 26.9589 26.9566 27.106 26.7383C27.2531 26.52 27.3323 26.2631 27.3337 25.9998V12.6665C27.3337 11.6056 26.9122 10.5882 26.1621 9.83808C25.4119 9.08793 24.3945 8.6665 23.3337 8.6665ZM8.66699 12.6665V15.1865H6.14699C5.97152 15.1855 5.79757 15.2191 5.63512 15.2855C5.47267 15.3518 5.32491 15.4496 5.20033 15.5732L3.33366 17.4532V4.6665C3.33366 4.31288 3.47413 3.97374 3.72418 3.7237C3.97423 3.47365 4.31337 3.33317 4.66699 3.33317H18.0003C18.3539 3.33317 18.6931 3.47365 18.9431 3.7237C19.1932 3.97374 19.3337 4.31288 19.3337 4.6665V8.6665H12.667C11.6061 8.6665 10.5887 9.08793 9.83856 9.83808C9.08842 10.5882 8.66699 11.6056 8.66699 12.6665ZM24.667 22.7865L23.3337 21.4532C23.2102 21.3272 23.0629 21.227 22.9004 21.1583C22.7379 21.0896 22.5634 21.0539 22.387 21.0532H12.667C12.3134 21.0532 11.9742 20.9127 11.7242 20.6626C11.4741 20.4126 11.3337 20.0735 11.3337 19.7198V12.6665C11.3337 12.3129 11.4741 11.9737 11.7242 11.7237C11.9742 11.4736 12.3134 11.3332 12.667 11.3332H23.3337C23.6873 11.3332 24.0264 11.4736 24.2765 11.7237C24.5265 11.9737 24.667 12.3129 24.667 12.6665V22.7865Z" fill="#5D4F3B"/>
</svg>
