<svg width="80" height="80" viewBox="0 0 80 80" fill="none" xmlns="http://www.w3.org/2000/svg">
<path d="M58.2168 66.5328C59.7315 65.0277 62.1801 65.0332 63.6905 66.5462C63.6907 66.5464 63.6909 66.5466 63.6911 66.5468L63.7679 66.626C63.7681 66.6262 63.7684 66.6264 63.7686 66.6266C65.201 68.1452 65.1758 70.5357 63.6935 72.0211C62.185 73.5328 59.736 73.5374 58.2193 72.0302C57.4867 71.3023 57.0747 70.3125 57.0744 69.2804C57.0741 68.2485 57.4853 67.2597 58.2168 66.5328ZM37.2168 66.5328C38.7315 65.0277 41.1801 65.0332 42.6905 66.5462C42.6907 66.5464 42.6909 66.5466 42.6911 66.5468L42.7679 66.626C42.7681 66.6262 42.7683 66.6264 42.7685 66.6266C44.201 68.1452 44.1758 70.5357 42.6935 72.0211C41.185 73.5328 38.736 73.5374 37.2193 72.0302C36.4867 71.3023 36.0747 70.3125 36.0744 69.2804C36.0741 68.2485 36.4853 67.2597 37.2168 66.5328ZM16.5501 66.5328C18.0648 65.0277 20.5134 65.0332 22.0238 66.5462L22.1018 66.6266C23.5343 68.1452 23.5091 70.5357 22.0269 72.0211C20.5184 73.5328 18.0693 73.5374 16.5526 72.0302C15.8201 71.3023 15.408 70.3125 15.4077 69.2804C15.4074 68.2485 15.8186 67.2597 16.5501 66.5328Z" fill="url(#paint0_linear_1421_1825)" stroke="#222222" stroke-width="0.25"/>
<path d="M50.8777 15.6396L51.0299 15.8986L51.3158 15.8066L51.5446 15.7329C51.5449 15.7328 51.5453 15.7327 51.5456 15.7326C52.4587 15.4441 53.4005 15.2984 54.352 15.2984C58.7899 15.2984 62.6007 18.3146 63.6759 22.6701C63.676 22.6705 63.6761 22.6709 63.6762 22.6713L63.7085 22.8062L63.7129 22.8246L63.7192 22.8425L63.8311 23.163L63.9189 23.4143H64.1851H64.5243C70.4545 23.4143 75.2917 28.3176 75.2917 34.3564C75.2917 40.3306 70.5517 45.1928 64.7036 45.2902C64.703 45.2902 64.7025 45.2902 64.702 45.2902L64.5243 45.2917H64.5226H40.9746C40.0002 45.2902 39.9998 45.2902 38.9734 45.2917H16.6545C10.7318 45.2917 5.80289 40.5999 5.41833 34.5888L5.41737 34.5738L5.41521 34.5589L5.41039 34.5257L5.40813 34.4997L5.3983 34.2977L5.3984 34.2977L5.39778 34.289C5.39683 34.2758 5.39587 34.2625 5.3949 34.2492C5.38514 34.1147 5.375 33.975 5.375 33.8335C5.375 28.4211 8.97098 23.862 14.1329 22.6754C14.1333 22.6753 14.1337 22.6752 14.1341 22.6751L14.2933 22.6397L14.2938 22.6396L14.507 22.5925L14.7485 22.5391L14.7945 22.2962L14.8386 22.0634L14.8387 22.0634L14.8396 22.0578C16.3212 13.5255 23.2905 6.86317 31.779 5.85757L31.7808 5.85735C32.6163 5.75431 33.3199 5.70837 33.9939 5.70837C40.7631 5.70837 47.1234 9.35254 50.6417 15.239C50.6419 15.2394 50.6422 15.2398 50.6424 15.2402L50.7488 15.4204L50.7491 15.421L50.8777 15.6396Z" stroke="#222222" stroke-width="0.75"/>
<path d="M40 45.3334V65.6267" stroke="#222222" stroke-width="0.75"/>
<path d="M19.2 65.282V57.6C19.2 56.4954 20.0954 55.6 21.2 55.6H58.8C59.9045 55.6 60.8 56.4954 60.8 57.6V65.2436" stroke="#222222" stroke-width="0.75"/>
<defs>
<linearGradient id="paint0_linear_1421_1825" x1="40.116" y1="65.2827" x2="40.116" y2="73.2827" gradientUnits="userSpaceOnUse">
<stop offset="0.338542" stop-color="#FF5E55"/>
<stop offset="1" stop-color="#FFC978"/>
</linearGradient>
</defs>
</svg>
