<svg width="18" height="18" viewBox="0 0 18 18" fill="none" xmlns="http://www.w3.org/2000/svg">
<path d="M16.2 9.9C16.2 11.502 15.7249 13.0681 14.8349 14.4001C13.9449 15.7322 12.6798 16.7704 11.1997 17.3834C9.71966 17.9965 8.09102 18.1569 6.51977 17.8444C4.94852 17.5318 3.50524 16.7604 2.37244 15.6276C1.23963 14.4948 0.468183 13.0515 0.155643 11.4802C-0.156897 9.90898 0.00350962 8.28034 0.616579 6.80026C1.22965 5.32018 2.26785 4.05513 3.59988 3.1651C4.93192 2.27506 6.49797 1.8 8.1 1.8V9.9H16.2Z" fill="#FF7E13"/>
<path d="M9.9 0C10.9637 1.26846e-08 12.017 0.209513 12.9997 0.616576C13.9825 1.02364 14.8754 1.62028 15.6276 2.37244C16.3797 3.12459 16.9764 4.01753 17.3834 5.00026C17.7905 5.983 18 7.03629 18 8.1L9.9 8.1V0Z" fill="#B34400"/>
</svg>
