<svg width="9" height="12" viewBox="0 0 9 12" fill="none" xmlns="http://www.w3.org/2000/svg">
<path fill-rule="evenodd" clip-rule="evenodd" d="M1.25217 11.6482C1.02693 11.4229 0.900391 11.1173 0.900391 10.7988C0.900391 10.4802 1.02693 10.1746 1.25217 9.94929L5.20872 5.99275L1.25217 2.0362C1.03331 1.80959 0.912206 1.50609 0.914943 1.19106C0.917681 0.876032 1.04404 0.57468 1.26681 0.351912C1.48958 0.129144 1.79093 0.00278295 2.10596 4.54197e-05C2.42099 -0.00269211 2.72449 0.118413 2.9511 0.337276L7.75711 5.14328C7.98235 5.3686 8.10889 5.67415 8.10889 5.99275C8.10889 6.31134 7.98235 6.61689 7.75711 6.84221L2.9511 11.6482C2.72578 11.8735 2.42023 12 2.10164 12C1.78304 12 1.47749 11.8735 1.25217 11.6482Z" fill="#475469"/>
</svg>
