<svg width="28" height="30" viewBox="0 0 28 30" fill="none" xmlns="http://www.w3.org/2000/svg">
<path d="M11.4274 26.3374C11.4274 26.1419 11.3844 25.9487 11.3014 25.7717C11.2184 25.5946 11.0974 25.438 10.9472 25.3129C10.7969 25.1877 10.6209 25.0972 10.4318 25.0477C10.2426 24.9981 10.0449 24.9908 9.85256 25.0262C8.10711 25.3465 5.90334 25.3947 5.3174 23.7489C4.80647 22.4742 3.96016 21.3616 2.86818 20.5289C2.79027 20.4865 2.71601 20.4377 2.64618 20.383C2.55061 20.1309 2.38086 19.9137 2.15933 19.7601C1.9378 19.6064 1.67489 19.5235 1.40529 19.5224H1.39878C1.04625 19.5222 0.708019 19.6618 0.45813 19.9104C0.208241 20.1591 0.0670459 20.4967 0.0654484 20.8492C0.060235 21.9364 1.14678 22.633 1.58758 22.8687C2.10737 23.391 2.52512 24.0057 2.81936 24.6812C3.30504 26.0458 4.71649 28.1161 8.77378 27.8492C8.77512 27.8961 8.77638 27.9404 8.77703 27.9807L8.78289 28.3375C8.78289 28.6911 8.92336 29.0303 9.17341 29.2803C9.42346 29.5304 9.7626 29.6708 10.1162 29.6708C10.4698 29.6708 10.809 29.5304 11.059 29.2803C11.3091 29.0303 11.4496 28.6911 11.4496 28.3375L11.443 27.913C11.4365 27.6603 11.4274 27.2944 11.4274 26.3374ZM25.6501 6.16941C25.6924 6.00275 25.7341 5.81785 25.7705 5.60952C25.9862 4.12364 25.7982 2.60711 25.2263 1.21885C25.1541 1.03787 25.0432 0.874863 24.9014 0.741258C24.7596 0.607652 24.5903 0.506682 24.4053 0.445427C23.9306 0.285267 22.1781 -0.0298395 18.8265 2.11209C16.0406 1.45649 13.1405 1.45649 10.3545 2.11209C7.01662 0.00153381 5.27313 0.287934 4.80307 0.438974C4.61356 0.497748 4.4396 0.598183 4.29394 0.732918C4.14828 0.867653 4.03462 1.03327 3.96127 1.21764C3.37768 2.63255 3.19173 4.18001 3.42352 5.69289C3.45608 5.86347 3.49122 6.02103 3.52769 6.16555C2.42312 7.6368 1.83477 9.43137 1.85386 11.271C1.85026 11.6815 1.86917 12.0918 1.9105 12.5002C2.35584 18.6369 6.35583 20.4793 9.14291 21.1122C9.08498 21.2788 9.03225 21.4572 8.98537 21.646C8.90182 21.9891 8.95773 22.3513 9.14083 22.6532C9.32394 22.9551 9.61929 23.1721 9.96213 23.2565C10.305 23.341 10.6673 23.286 10.9697 23.1037C11.2721 22.9214 11.4898 22.6267 11.5752 22.284C11.66 21.8398 11.8775 21.4317 12.1989 21.1135C12.3933 20.9433 12.534 20.7204 12.6039 20.4717C12.6739 20.2231 12.6701 19.9595 12.593 19.713C12.5158 19.4664 12.3687 19.2476 12.1696 19.0832C11.9704 18.9187 11.7277 18.8157 11.471 18.7866C6.86558 18.2606 4.86622 16.3843 4.56545 12.2554C4.53213 11.9284 4.51713 11.5997 4.52053 11.271C4.49914 9.9599 4.9323 8.6818 5.74643 7.65384C5.82824 7.54667 5.91537 7.44367 6.0075 7.34524C6.17074 7.16258 6.2805 6.93847 6.32472 6.69752C6.36894 6.45656 6.34591 6.20808 6.25817 5.97936C6.16822 5.73873 6.09896 5.49087 6.05114 5.23847C5.94252 4.52076 5.97815 3.78859 6.15594 3.08481C7.31479 3.41211 8.40543 3.94487 9.37594 4.65772C9.53644 4.76462 9.71804 4.83576 9.90844 4.86631C10.0988 4.89687 10.2936 4.88613 10.4795 4.83481C13.1743 4.10348 16.0154 4.10394 18.7099 4.83615C18.8968 4.8874 19.0926 4.89753 19.2838 4.86584C19.475 4.83414 19.657 4.76138 19.8173 4.65256C20.7833 3.93674 21.8694 3.39922 23.0244 3.06532C23.2014 3.75219 23.241 4.46726 23.1409 5.16948C23.0926 5.4462 23.0172 5.71748 22.9156 5.97939C22.8279 6.20811 22.8049 6.45659 22.8491 6.69754C22.8933 6.93849 23.0031 7.1626 23.1663 7.34527C23.2692 7.46115 23.372 7.58615 23.4645 7.70333C24.2729 8.71389 24.6987 9.9773 24.667 11.271C24.6694 11.6172 24.6527 11.9632 24.6169 12.3075C24.3233 16.3817 22.3161 18.2593 17.6891 18.7866C17.4324 18.8159 17.1897 18.9191 16.9906 19.0837C16.7914 19.2483 16.6444 19.4672 16.5673 19.7139C16.4903 19.9605 16.4866 20.2242 16.5566 20.4729C16.6267 20.7216 16.7675 20.9446 16.9619 21.1148C17.2934 21.4415 17.5114 21.8659 17.5837 22.3257C17.6738 22.6826 17.7152 23.0501 17.7067 23.4181V26.5301C17.6937 27.3934 17.6937 28.0405 17.6937 28.3374C17.6937 28.691 17.8342 29.0302 18.0842 29.2802C18.3342 29.5303 18.6734 29.6707 19.027 29.6707C19.3806 29.6707 19.7198 29.5303 19.9698 29.2802C20.2199 29.0302 20.3603 28.691 20.3603 28.3374C20.3603 28.0483 20.3603 27.4142 20.3734 26.551V23.4181C20.3841 22.8286 20.3147 22.2403 20.167 21.6694C20.1248 21.482 20.073 21.2969 20.012 21.1148C22.0404 20.7778 23.8833 19.732 25.2129 18.1636C26.5424 16.5951 27.2722 14.6058 27.2724 12.5497C27.3164 12.1249 27.3368 11.698 27.3337 11.271C27.3633 9.42937 26.77 7.63172 25.6501 6.16944L25.6501 6.16941Z" fill="#5D4F3B"/>
</svg>
