<svg width="31" height="24" viewBox="0 0 31 24" fill="none" xmlns="http://www.w3.org/2000/svg">
<path d="M15.8997 12.2932C16.6111 11.6773 17.1817 10.9157 17.5728 10.0599C17.9639 9.20405 18.1664 8.27412 18.1663 7.33317C18.1663 5.56506 17.464 3.86937 16.2137 2.61913C14.9635 1.36888 13.2678 0.666504 11.4997 0.666504C9.73156 0.666504 8.03587 1.36888 6.78563 2.61913C5.53539 3.86937 4.83301 5.56506 4.83301 7.33317C4.833 8.27412 5.03541 9.20405 5.42651 10.0599C5.81761 10.9157 6.38824 11.6773 7.09967 12.2932C5.23319 13.1383 3.64963 14.5032 2.53831 16.2246C1.427 17.9459 0.83497 19.9509 0.833008 21.9998C0.833008 22.3535 0.973484 22.6926 1.22353 22.9426C1.47358 23.1927 1.81272 23.3332 2.16634 23.3332C2.51996 23.3332 2.8591 23.1927 3.10915 22.9426C3.3592 22.6926 3.49967 22.3535 3.49967 21.9998C3.49967 19.8781 4.34253 17.8433 5.84282 16.343C7.34311 14.8427 9.37794 13.9998 11.4997 13.9998C13.6214 13.9998 15.6562 14.8427 17.1565 16.343C18.6568 17.8433 19.4997 19.8781 19.4997 21.9998C19.4997 22.3535 19.6402 22.6926 19.8902 22.9426C20.1402 23.1927 20.4794 23.3332 20.833 23.3332C21.1866 23.3332 21.5258 23.1927 21.7758 22.9426C22.0259 22.6926 22.1663 22.3535 22.1663 21.9998C22.1644 19.9509 21.5723 17.9459 20.461 16.2246C19.3497 14.5032 17.7662 13.1383 15.8997 12.2932ZM11.4997 11.3332C10.7085 11.3332 9.93519 11.0986 9.27739 10.659C8.6196 10.2195 8.10691 9.59481 7.80416 8.8639C7.50141 8.133 7.42219 7.32873 7.57653 6.55281C7.73087 5.77689 8.11184 5.06415 8.67125 4.50474C9.23066 3.94533 9.94339 3.56437 10.7193 3.41003C11.4952 3.25569 12.2995 3.3349 13.0304 3.63765C13.7613 3.9404 14.386 4.45309 14.8256 5.11089C15.2651 5.76869 15.4997 6.54205 15.4997 7.33317C15.4997 8.39404 15.0782 9.41145 14.3281 10.1616C13.578 10.9117 12.5605 11.3332 11.4997 11.3332ZM24.4863 11.7598C25.3396 10.7989 25.897 9.61191 26.0914 8.34162C26.2858 7.07133 26.1089 5.77194 25.582 4.59984C25.0551 3.42774 24.2007 2.4329 23.1216 1.73507C22.0425 1.03724 20.7847 0.66616 19.4997 0.666504C19.1461 0.666504 18.8069 0.80698 18.5569 1.05703C18.3068 1.30708 18.1663 1.64622 18.1663 1.99984C18.1663 2.35346 18.3068 2.6926 18.5569 2.94265C18.8069 3.19269 19.1461 3.33317 19.4997 3.33317C20.5605 3.33317 21.578 3.7546 22.3281 4.50474C23.0782 5.25489 23.4997 6.2723 23.4997 7.33317C23.4978 8.03349 23.3121 8.72104 22.9611 9.32707C22.6101 9.93309 22.1062 10.4363 21.4997 10.7865C21.302 10.9005 21.1369 11.0634 21.0202 11.2595C20.9034 11.4556 20.839 11.6784 20.833 11.9065C20.8274 12.1329 20.8796 12.3569 20.9846 12.5575C21.0895 12.7581 21.2439 12.9287 21.433 13.0532L21.953 13.3998L22.1263 13.4932C23.7335 14.2555 25.0894 15.4612 26.0343 16.9683C26.9792 18.4754 27.4737 20.2211 27.4597 21.9998C27.4597 22.3535 27.6002 22.6926 27.8502 22.9426C28.1002 23.1927 28.4394 23.3332 28.793 23.3332C29.1466 23.3332 29.4858 23.1927 29.7358 22.9426C29.9859 22.6926 30.1263 22.3535 30.1263 21.9998C30.1372 19.9537 29.6248 17.9388 28.6376 16.1466C27.6505 14.3543 26.2215 12.8443 24.4863 11.7598Z" fill="#5D4F3B"/>
</svg>
