<svg width="18" height="18" viewBox="0 0 18 18" fill="none" xmlns="http://www.w3.org/2000/svg">
<path d="M18 9C18 13.9706 13.9706 18 9 18C4.02944 18 0 13.9706 0 9C0 4.02944 4.02944 0 9 0C13.9706 0 18 4.02944 18 9Z" fill="#8A8A8A"/>
<path fill-rule="evenodd" clip-rule="evenodd" d="M17.9698 9.74309C16.04 10.0013 13.6775 10.7987 12.9975 12.1999C12.6063 13.006 12.674 15.4468 12.813 17.1547C15.6649 15.819 17.701 13.0312 17.9698 9.74309ZM8.61291 17.9918C3.82192 17.7891 0 13.8409 0 9C0 7.96786 0.173745 6.9763 0.493583 6.05297C1.79163 6.36516 2.99162 7.23252 2.99162 9.33622C2.99162 10.9044 4.19304 11.2129 5.5551 11.5627C6.1828 11.7239 6.84461 11.8938 7.43867 12.1999C8.32127 12.6545 8.61998 15.6359 8.61291 17.9918ZM3.28046 2.0508C4.83542 0.769511 6.82784 0 9 0C11.7137 0 14.1469 1.20106 15.797 3.10061C15.452 3.2917 15.0706 3.46972 14.6651 3.60895C13.1335 4.13498 13.0086 4.66102 12.5677 6.51834C12.5286 6.6832 12.4869 6.85855 12.4416 7.04531C11.6555 10.2851 7.99456 8.76349 7.43867 7.61804C7.21458 7.15628 7.17117 6.60145 7.12634 6.02858C7.05996 5.18038 6.99049 4.29264 6.32691 3.60895C6.0394 3.31273 5.58699 3.27172 5.12065 3.22944C4.50444 3.17358 3.86392 3.11552 3.5475 2.46349L3.28046 2.0508Z" fill="#C5C4C4"/>
<path fill-rule="evenodd" clip-rule="evenodd" d="M7.98302 17.9434C7.97939 17.1493 7.9403 16.2935 7.85485 15.5011C7.77581 14.7682 7.65978 14.116 7.50649 13.6261C7.42979 13.381 7.35003 13.1972 7.27376 13.0705C7.20243 12.952 7.15557 12.9189 7.15048 12.9153C6.74225 12.705 6.28276 12.5617 5.78703 12.4293C5.66926 12.3978 5.54683 12.3664 5.42211 12.3344C5.04736 12.2382 4.65186 12.1366 4.30018 12.0129C3.82293 11.8451 3.32697 11.6057 2.95344 11.1902C2.56305 10.756 2.36188 10.193 2.36188 9.49151C2.36188 8.25204 1.89687 7.60046 1.32623 7.22632C1.017 7.02358 0.654005 6.88797 0.270264 6.8032C0.373791 6.39053 0.505814 5.98915 0.664118 5.6013C1.13006 5.71553 1.59532 5.89608 2.01709 6.17261C2.97513 6.80075 3.62188 7.86735 3.62188 9.49151C3.62188 9.93548 3.74121 10.1819 3.8904 10.3478C4.05645 10.5325 4.31917 10.6839 4.71829 10.8243C5.0139 10.9283 5.33056 11.0097 5.68775 11.1014C5.82305 11.1361 5.96426 11.1724 6.11224 11.2119C6.62689 11.3494 7.19412 11.5203 7.72745 11.7951C8.0108 11.9411 8.21065 12.1837 8.35326 12.4206C8.4992 12.6631 8.61487 12.949 8.70899 13.2498C8.89733 13.8517 9.0245 14.5955 9.10759 15.366C9.19992 16.2221 9.24113 17.1439 9.24322 17.997C9.16247 17.9991 9.08126 18 9 18C8.6561 18 8.31689 17.9809 7.98302 17.9434ZM17.8674 10.5493C17.4586 10.6108 17.0321 10.6975 16.6107 10.8098C15.8964 11.0002 15.2172 11.259 14.6685 11.5801C14.1129 11.9052 13.7424 12.2638 13.5645 12.6302C13.4843 12.7956 13.4063 13.1769 13.3657 13.7699C13.3272 14.3332 13.3267 15.0027 13.3495 15.6782C13.363 16.0794 13.3845 16.4763 13.4102 16.8475C13.0205 17.067 12.6129 17.2582 12.19 17.4186C12.1466 16.8962 12.11 16.3083 12.0902 15.7207C12.0666 15.0224 12.0661 14.3061 12.1087 13.6839C12.1492 13.0914 12.2333 12.4874 12.431 12.0801C12.7602 11.4017 13.3644 10.8833 14.0322 10.4926C14.7067 10.0979 15.4994 9.80208 16.2861 9.59234C16.8626 9.43868 17.447 9.32826 17.9965 9.25972C17.9841 9.69814 17.9403 10.1287 17.8674 10.5493ZM3.71375 1.71562L4.09768 2.30897L4.11455 2.34373C4.23385 2.58956 4.43394 2.68094 4.9618 2.73668C5.01654 2.74246 5.07847 2.74806 5.145 2.75407C5.34955 2.77257 5.59764 2.79501 5.81411 2.83869C6.11993 2.9004 6.4857 3.02302 6.77925 3.32546C7.49323 4.06108 7.64655 4.9659 7.71857 5.70793C7.7347 5.87418 7.74609 6.02163 7.75684 6.16075C7.77241 6.36231 7.78664 6.54649 7.81198 6.74494C7.85182 7.05689 7.91012 7.30128 8.00572 7.49828C8.06601 7.6225 8.276 7.85318 8.66218 8.07858C9.02988 8.29319 9.48018 8.45673 9.92266 8.5052C10.3642 8.55355 10.7582 8.4844 11.0678 8.28687C11.3675 8.09567 11.6636 7.73632 11.8296 7.05205C11.8728 6.87439 11.9133 6.70375 11.9519 6.54088C12.0343 6.19378 12.1084 5.88202 12.1812 5.61303C12.2893 5.21412 12.4092 4.85087 12.5858 4.53254C12.9731 3.83424 13.5624 3.47693 14.4608 3.1684C14.8141 3.04706 15.1485 2.89255 15.453 2.7263C15.7509 3.03267 16.0272 3.36018 16.2794 3.70636C15.8594 3.95188 15.3831 4.18389 14.87 4.36008C14.1008 4.62428 13.8563 4.8397 13.6877 5.14367C13.5863 5.32648 13.4978 5.57175 13.3974 5.94244C13.3298 6.19215 13.2632 6.47243 13.184 6.80622C13.1445 6.97278 13.1017 7.15311 13.0541 7.34916C12.8271 8.28481 12.3708 8.95019 11.7455 9.34909C11.1303 9.74166 10.4269 9.82797 9.78547 9.75771C9.14497 9.68756 8.52668 9.4584 8.02704 9.16679C7.5459 8.88596 7.08981 8.49689 6.87216 8.04839C6.68982 7.67266 6.60915 7.27273 6.56213 6.90456C6.53419 6.6858 6.51444 6.43605 6.49608 6.20384C6.48551 6.07022 6.47541 5.94241 6.46446 5.82965C6.39751 5.13985 6.27288 4.61286 5.8751 4.20302C5.83494 4.16164 5.75592 4.11235 5.56488 4.0738C5.42055 4.04467 5.27784 4.03177 5.09915 4.01561C5.01788 4.00826 4.92917 4.00024 4.82949 3.98971C4.28131 3.93183 3.44168 3.79734 2.99972 2.9315L2.7416 2.53258C3.04574 2.2382 3.37059 1.96509 3.71375 1.71562Z" fill="white"/>
</svg>
