<svg width="100" height="100" viewBox="0 0 100 100" fill="none" xmlns="http://www.w3.org/2000/svg">
<path d="M66.23 53.86C66.7751 54.548 67.4774 55.0951 68.2779 55.4553C69.0783 55.8155 69.9536 55.9783 70.83 55.93H73.59C74.81 55.93 75.98 55.4454 76.8427 54.5827C77.7054 53.72 78.19 52.55 78.19 51.33C78.19 50.11 77.7054 48.94 76.8427 48.0773C75.98 47.2146 74.81 46.73 73.59 46.73H70.6C69.38 46.73 68.21 46.2454 67.3473 45.3827C66.4846 44.52 66 43.35 66 42.13C66 40.91 66.4846 39.74 67.3473 38.8773C68.21 38.0146 69.38 37.53 70.6 37.53H73.36C75.43 37.53 76.81 37.99 77.96 39.6M71.98 35V58" stroke="#222222" stroke-width="1.5" stroke-linecap="round" stroke-linejoin="round"/>
<circle cx="27" cy="55" r="2.5" fill="#222222" stroke="#222222"/>
<circle cx="43" cy="55" r="2.5" fill="#222222" stroke="#222222"/>
<path d="M51 33.25H51.4055L51.2415 33.8691L51.2403 33.8737L47.5006 48.3527C47.2607 49.2813 46.4405 49.9383 45.4891 49.9758L45.3959 49.9775H24.9343C24.0516 49.9775 23.2571 49.442 22.9259 48.6238L17.9091 36.2296C17.4601 35.1204 17.9953 33.8573 19.1045 33.4083C19.3628 33.3038 19.6388 33.25 19.9174 33.25H51Z" fill="url(#paint0_linear_333_2293)" stroke="#222222" stroke-width="1.5"/>
<rect x="7.75" y="17.75" width="83.5" height="56.5" rx="7.25" stroke="#222222" stroke-width="1.5"/>
<rect x="42.75" y="74.25" width="13.5" height="8.5" rx="1.25" stroke="#222222" stroke-width="1.5"/>
<path d="M8 65.5H91.5" stroke="#222222" stroke-width="1.5"/>
<path d="M35 82.7998H64" stroke="#222222" stroke-width="1.5" stroke-linecap="round"/>
<defs>
<linearGradient id="paint0_linear_333_2293" x1="38.4783" y1="26" x2="38.4783" y2="50.7275" gradientUnits="userSpaceOnUse">
<stop offset="0.338542" stop-color="#F61003"/>
<stop offset="1" stop-color="#F49402"/>
</linearGradient>
</defs>
</svg>
