<svg width="527" height="83" viewBox="0 0 527 83" fill="none" xmlns="http://www.w3.org/2000/svg">
<g clip-path="url(#clip0_215_2560)">
<g clip-path="url(#clip1_215_2560)">
<path d="M234.324 69.165L248.912 54.5813L234.324 54.5813C226.586 54.5813 219.164 57.6543 213.693 63.1243C208.221 68.5942 205.147 76.0131 205.147 83.7488L219.735 83.7488L234.324 98.3325L234.324 69.165Z" stroke="#EBEBEB" stroke-linecap="round" stroke-linejoin="round"/>
<path d="M161.382 35.9976L161.382 21.4138L146.794 35.9976L161.382 35.9976Z" stroke="#EBEBEB" stroke-linecap="round" stroke-linejoin="round"/>
<path d="M234.323 25.4138L234.323 10.8301C214.978 10.8301 196.425 18.5126 182.746 32.1875C169.067 45.8624 161.382 64.4095 161.382 83.7487L175.971 83.7487C175.971 68.2774 182.118 53.4396 193.062 42.4997C204.005 31.5598 218.847 25.4138 234.323 25.4138Z" stroke="#EBEBEB" stroke-linecap="round" stroke-linejoin="round"/>
<path d="M234.323 54.5813L234.323 39.9976C222.716 39.9976 211.585 44.607 203.377 52.812C195.17 61.0169 190.559 72.1452 190.559 83.7488L205.147 83.7488C205.147 76.0131 208.221 68.5942 213.693 63.1242C219.164 57.6543 226.585 54.5813 234.323 54.5813Z" stroke="#EBEBEB" stroke-linecap="round" stroke-linejoin="round"/>
<path d="M234.324 39.9976L248.912 25.4138L234.324 25.4138C218.847 25.4138 204.005 31.5598 193.062 42.4997C182.119 53.4397 175.971 68.2774 175.971 83.7487L190.559 83.7488C190.559 72.1452 195.17 61.0169 203.377 52.812C211.585 44.607 222.717 39.9976 234.324 39.9976Z" stroke="#EBEBEB" stroke-linecap="round" stroke-linejoin="round"/>
<path d="M438.559 69.165L438.559 112.916L482.323 112.916L482.323 54.5813L453.147 54.5813L438.559 69.165Z" stroke="#EBEBEB" stroke-linecap="round" stroke-linejoin="round"/>
<path d="M482.323 39.9976L482.323 25.4138L467.735 39.9976L482.323 39.9976Z" stroke="#EBEBEB" stroke-linecap="round" stroke-linejoin="round"/>
<path d="M380.206 69.165L365.618 83.7488L380.206 98.3325L380.206 69.165Z" stroke="#EBEBEB" stroke-linecap="round" stroke-linejoin="round"/>
<path d="M394.794 112.916L438.559 112.916L438.559 69.165L380.206 69.165L380.206 98.3325L394.794 112.916Z" stroke="#EBEBEB" stroke-linecap="round" stroke-linejoin="round"/>
<path d="M292.677 69.1651L336.441 112.916L351.03 98.3326L365.618 83.7489L380.206 69.1651L394.794 54.5814L409.382 39.9977L423.971 25.4139L394.794 -3.75355L380.206 -18.3373L292.677 69.1651ZM394.794 10.8302L394.794 39.9977L351.03 83.7489L321.853 83.7489L321.853 54.5814L365.618 10.8302L394.794 10.8302Z" stroke="#EBEBEB" stroke-linecap="round" stroke-linejoin="round"/>
<path d="M307.265 10.8302L321.853 10.8302L321.853 25.4139L292.676 54.5814L278.088 54.5814L248.912 54.5814L234.323 69.1651L292.676 69.1651L380.206 -18.3373L365.618 -18.3373L351.029 -18.3373L321.853 -18.3373L321.853 -3.75355L307.265 10.8302Z" stroke="#EBEBEB" stroke-linecap="round" stroke-linejoin="round"/>
<path d="M307.265 112.916L336.441 112.916L292.676 69.165L234.324 69.165L278.088 112.916L307.265 112.916Z" stroke="#EBEBEB" stroke-linecap="round" stroke-linejoin="round"/>
<path d="M453.147 54.5813L394.794 54.5813L380.206 69.165L438.559 69.165L453.147 54.5813Z" stroke="#EBEBEB" stroke-linecap="round" stroke-linejoin="round"/>
<path d="M467.735 39.9976L482.323 25.4138L423.971 25.4138L409.382 39.9975L467.735 39.9976Z" stroke="#EBEBEB" stroke-linecap="round" stroke-linejoin="round"/>
<path d="M278.088 112.916L234.324 69.165L234.324 98.3325L234.324 112.916L278.088 156.667L292.677 171.251L292.677 127.5L278.088 112.916Z" stroke="#EBEBEB" stroke-linecap="round" stroke-linejoin="round"/>
<path d="M263.5 39.9976L234.324 39.9976L234.324 54.5813L248.912 54.5813L278.088 54.5813L292.677 54.5813L292.677 39.9976L263.5 39.9976Z" stroke="#EBEBEB" stroke-linecap="round" stroke-linejoin="round"/>
<path d="M292.677 54.5813L321.853 25.4138L321.853 10.8301L292.677 39.9975L292.677 54.5813Z" stroke="#EBEBEB" stroke-linecap="round" stroke-linejoin="round"/>
<path d="M263.5 39.9975L292.677 39.9975L321.853 10.8301L307.265 10.8301L292.677 25.4138L263.5 25.4138L248.912 25.4138L234.324 39.9975L263.5 39.9975Z" stroke="#EBEBEB" stroke-linecap="round" stroke-linejoin="round"/>
<path d="M248.912 25.4138L263.5 25.4138L292.677 25.4138L292.677 10.8301L278.088 10.8301L263.5 10.8301L234.324 10.8301L234.324 25.4138L248.912 25.4138Z" stroke="#EBEBEB" stroke-linecap="round" stroke-linejoin="round"/>
<path d="M292.677 10.8302L292.677 25.4139L307.265 10.8302L321.853 -3.75355L321.853 -18.3373L292.677 10.8302Z" stroke="#EBEBEB" stroke-linecap="round" stroke-linejoin="round"/>
<path d="M278.088 10.8302L292.677 10.8302L321.853 -18.3373L307.265 -18.3373L278.088 -18.3373L263.5 -18.3373L234.324 10.8302L263.5 10.8302L278.088 10.8302Z" stroke="#EBEBEB" stroke-linecap="round" stroke-linejoin="round"/>
<path d="M394.794 39.9977L394.794 10.8302L365.618 10.8302L365.618 39.9977L394.794 39.9977ZM372.912 25.4139L380.206 18.1221L387.5 25.4139L380.206 32.7058L372.912 25.4139Z" stroke="#EBEBEB" stroke-linecap="round" stroke-linejoin="round"/>
<path d="M321.853 83.7489L365.618 39.9977L365.618 10.8302L321.853 54.5814L321.853 83.7489Z" stroke="#EBEBEB" stroke-linecap="round" stroke-linejoin="round"/>
<path d="M321.853 83.7488L351.029 83.7488L394.794 39.9976L365.618 39.9976L321.853 83.7488Z" stroke="#EBEBEB" stroke-linecap="round" stroke-linejoin="round"/>
<path d="M146.794 35.9976L132.206 50.5813L30.0882 50.5813L44.6764 35.9976L30.0882 35.9976L0.911739 65.165L132.206 65.165L161.382 35.9976L146.794 35.9976Z" stroke="#EBEBEB" stroke-linecap="round" stroke-linejoin="round"/>
<path d="M132.206 50.5813L146.794 35.9976L161.382 21.4138L59.2647 21.4138L44.6764 35.9975L30.0882 50.5813L132.206 50.5813Z" stroke="#EBEBEB" stroke-linecap="round" stroke-linejoin="round"/>
<path d="M467.735 39.9976L409.382 39.9976L394.794 54.5813L453.147 54.5813L467.735 39.9976Z" stroke="#EBEBEB" stroke-linecap="round" stroke-linejoin="round"/>
<path d="M387.511 25.4189L380.213 18.1229L372.914 25.4189L380.213 32.7148L387.511 25.4189Z" stroke="#EBEBEB" stroke-linecap="round" stroke-linejoin="round"/>
<path d="M453.147 54.5813L482.323 54.5813L482.323 39.9976L467.735 39.9976L453.147 54.5813Z" stroke="#EBEBEB" stroke-linecap="round" stroke-linejoin="round"/>
</g>
</g>
<defs>
<clipPath id="clip0_215_2560">
<rect width="527" height="83" fill="white"/>
</clipPath>
<clipPath id="clip1_215_2560">
<rect width="381" height="527" fill="white" transform="translate(527 -63) rotate(90)"/>
</clipPath>
</defs>
</svg>
