<svg width="577" height="55" viewBox="0 0 577 55" fill="none" xmlns="http://www.w3.org/2000/svg">
<g opacity="0.15" clip-path="url(#clip0_276_796)">
<g clip-path="url(#clip1_276_796)">
<path d="M30.6765 -39.6675L89.0294 18.6675L103.618 18.6675L45.2647 -39.6675L30.6765 -39.6675Z" stroke="#1B1B1B" stroke-linecap="round" stroke-linejoin="round"/>
<path d="M-13.0882 -39.6675L45.2648 18.6675L59.853 18.6675L1.50008 -39.6675L-13.0882 -39.6675Z" stroke="#1B1B1B" stroke-linecap="round" stroke-linejoin="round"/>
<path d="M161.971 -25.0837L176.559 -25.0837L220.323 -25.0837L205.735 -39.6675L74.4411 -39.6675L132.794 18.6674L161.971 18.6675L161.971 -25.0837Z" stroke="#1B1B1B" stroke-linecap="round" stroke-linejoin="round"/>
<path d="M424.559 33.2512L409.97 47.8349L395.382 62.4187L512.088 62.4187L482.912 33.2512L424.559 33.2512Z" stroke="#1B1B1B" stroke-linecap="round" stroke-linejoin="round"/>
<path d="M512.088 62.4187L512.088 4.08372L482.912 -25.0837L482.912 33.2512L512.088 62.4187Z" stroke="#1B1B1B" stroke-linecap="round" stroke-linejoin="round"/>
<path d="M220.323 -25.0837L161.971 -25.0837L161.971 33.2512L220.323 33.2512L220.323 -25.0837ZM176.559 18.6675L176.559 -10.5L205.735 -10.5L205.735 18.6675L176.559 18.6675Z" stroke="#1B1B1B" stroke-linecap="round" stroke-linejoin="round"/>
<path d="M176.559 18.6675L205.735 18.6675L176.559 -10.5L176.559 18.6675Z" stroke="#1B1B1B" stroke-linecap="round" stroke-linejoin="round"/>
<path d="M278.676 33.2512L264.088 18.6675L220.323 -25.0837L220.323 33.2512L234.912 47.8349L234.912 33.2512L234.912 18.6675L278.676 62.4187L278.676 91.5861L293.265 106.17L293.265 47.8349L278.676 33.2512Z" stroke="#1B1B1B" stroke-linecap="round" stroke-linejoin="round"/>
<path d="M249.5 91.5861L205.735 47.8349L220.323 47.835L234.912 47.835L220.323 33.2512L161.971 33.2512L234.912 106.17L293.265 106.17L278.676 91.5862L249.5 91.5861Z" stroke="#1B1B1B" stroke-linecap="round" stroke-linejoin="round"/>
<path d="M191.147 -10.5L176.559 -10.5L205.735 18.6675L205.735 -10.5L191.147 -10.5Z" stroke="#1B1B1B" stroke-linecap="round" stroke-linejoin="round"/>
<path d="M293.265 47.835L293.265 106.17L351.618 106.17L351.618 47.835L293.265 47.835ZM337.029 62.4187L337.029 91.5862L307.853 91.5862L307.853 62.4187L337.029 62.4187Z" stroke="#1B1B1B" stroke-linecap="round" stroke-linejoin="round"/>
<path d="M395.382 4.08374L351.618 47.8349L351.618 106.17L395.382 62.4187L395.382 4.08374Z" stroke="#1B1B1B" stroke-linecap="round" stroke-linejoin="round"/>
<path d="M409.971 47.8349L424.559 33.2512L424.559 18.6675L424.559 -25.0837L409.971 -10.5L409.971 47.8349Z" stroke="#1B1B1B" stroke-linecap="round" stroke-linejoin="round"/>
<path d="M337.029 4.08374L322.441 18.6675L307.853 33.2512L293.265 47.8349L351.618 47.8349L395.382 4.08374L380.794 4.08374L337.029 4.08374Z" stroke="#1B1B1B" stroke-linecap="round" stroke-linejoin="round"/>
<path d="M322.441 18.6675L322.441 -25.0837L293.265 -25.0837L293.265 18.6675L322.441 18.6675Z" stroke="#1B1B1B" stroke-linecap="round" stroke-linejoin="round"/>
<path d="M293.265 -25.0837L278.676 -10.5L278.676 33.2512L293.265 18.6675L293.265 -25.0837Z" stroke="#1B1B1B" stroke-linecap="round" stroke-linejoin="round"/>
<path d="M322.441 18.6675L293.265 18.6675L278.676 33.2512L307.853 33.2512L322.441 18.6675Z" stroke="#1B1B1B" stroke-linecap="round" stroke-linejoin="round"/>
<path d="M337.029 4.08372L337.029 -39.6675L322.441 -25.0837L322.441 18.6675L337.029 4.08372Z" stroke="#1B1B1B" stroke-linecap="round" stroke-linejoin="round"/>
<path d="M278.677 33.2512L293.265 47.835L307.853 33.2512L278.677 33.2512Z" stroke="#1B1B1B" stroke-linecap="round" stroke-linejoin="round"/>
<path d="M264.088 -25.0838L220.324 -68.835L220.324 -39.6675L220.324 -25.0838L264.088 18.6674L278.677 33.2512L278.677 -10.5L264.088 -25.0838Z" stroke="#1B1B1B" stroke-linecap="round" stroke-linejoin="round"/>
<path d="M424.559 18.6675L424.559 33.2512L482.912 33.2512L482.912 -25.0837L424.559 -25.0837L424.559 18.6675ZM468.324 -10.5L468.324 18.6675L439.147 18.6675L439.147 -10.5L468.324 -10.5Z" stroke="#1B1B1B" stroke-linecap="round" stroke-linejoin="round"/>
<path d="M161.971 77.0024L191.147 77.0024L132.794 18.6675L103.618 18.6675L161.971 77.0024Z" stroke="#1B1B1B" stroke-linecap="round" stroke-linejoin="round"/>
<path d="M45.2648 -39.6675L103.618 18.6675L132.794 18.6675L74.4412 -39.6675L45.2648 -39.6675Z" stroke="#1B1B1B" stroke-linecap="round" stroke-linejoin="round"/>
<path d="M1.49989 -39.6675L59.8528 18.6675L89.0293 18.6675L30.6764 -39.6675L1.49989 -39.6675Z" stroke="#1B1B1B" stroke-linecap="round" stroke-linejoin="round"/>
<path d="M118.206 77.0024L147.382 77.0024L89.0294 18.6675L59.8529 18.6675L118.206 77.0024Z" stroke="#1B1B1B" stroke-linecap="round" stroke-linejoin="round"/>
<path d="M380.794 4.08372L337.029 -39.6675L337.029 4.08372L380.794 4.08372Z" stroke="#1B1B1B" stroke-linecap="round" stroke-linejoin="round"/>
<path d="M380.794 4.08371L395.382 -10.5L380.794 -25.0838L366.206 -39.6675L351.618 -54.2512L337.029 -39.6675L380.794 4.08371Z" stroke="#1B1B1B" stroke-linecap="round" stroke-linejoin="round"/>
<path d="M278.677 62.4187L234.912 18.6675L234.912 33.2512L264.088 62.4187L278.677 62.4187Z" stroke="#1B1B1B" stroke-linecap="round" stroke-linejoin="round"/>
<path d="M220.324 47.835L205.735 47.835L249.5 91.5862L249.5 77.0024L220.324 47.835Z" stroke="#1B1B1B" stroke-linecap="round" stroke-linejoin="round"/>
<path d="M249.5 77.0024L264.088 62.4187L234.912 33.2512L234.912 47.835L220.323 47.835L249.5 77.0024Z" stroke="#1B1B1B" stroke-linecap="round" stroke-linejoin="round"/>
<path d="M395.382 -10.5L380.794 4.08373L395.382 4.08373L409.97 -10.5L395.382 -10.5Z" stroke="#1B1B1B" stroke-linecap="round" stroke-linejoin="round"/>
<path d="M409.97 -10.5L395.382 4.08373L395.382 62.4187L409.97 47.8349L409.97 -10.5Z" stroke="#1B1B1B" stroke-linecap="round" stroke-linejoin="round"/>
<path d="M453.735 4.08373L453.735 18.6675L468.323 18.6675L468.323 -10.5L439.147 -10.5L453.735 4.08373Z" stroke="#1B1B1B" stroke-linecap="round" stroke-linejoin="round"/>
<path d="M439.147 -10.5L439.147 18.6675L453.735 18.6675L453.735 4.08373L439.147 -10.5Z" stroke="#1B1B1B" stroke-linecap="round" stroke-linejoin="round"/>
</g>
</g>
<defs>
<clipPath id="clip0_276_796">
<rect width="577" height="55" fill="white"/>
</clipPath>
<clipPath id="clip1_276_796">
<rect width="381" height="527" fill="white" transform="translate(513 -201) rotate(90)"/>
</clipPath>
</defs>
</svg>
