<svg width="20" height="20" viewBox="0 0 20 20" fill="none" xmlns="http://www.w3.org/2000/svg">
<path fill-rule="evenodd" clip-rule="evenodd" d="M2.5 2.50016C2.5 1.57969 3.24619 0.833496 4.16667 0.833496H12.4852C12.9272 0.833496 13.3511 1.00909 13.6637 1.32165L17.0118 4.66979C17.3244 4.98235 17.5 5.40627 17.5 5.8483V17.5002C17.5 18.4206 16.7538 19.1668 15.8333 19.1668H3.95833C3.61316 19.1668 3.33333 18.887 3.33333 18.5418C3.33333 18.1967 3.61316 17.9168 3.95833 17.9168H15.8333C16.0635 17.9168 16.25 17.7303 16.25 17.5002V7.0835H12.9167C11.9962 7.0835 11.25 6.3373 11.25 5.41683V2.0835H4.16667C3.93655 2.0835 3.75 2.27004 3.75 2.50016V7.7085C3.75 8.05367 3.47018 8.3335 3.125 8.3335C2.77982 8.3335 2.5 8.05367 2.5 7.7085V2.50016ZM12.5 2.08376V5.41683C12.5 5.64695 12.6865 5.8335 12.9167 5.8335H16.2497C16.246 5.72837 16.2026 5.62832 16.128 5.55367L12.7798 2.20553C12.7052 2.13089 12.6051 2.08749 12.5 2.08376Z" fill="#222222"/>
<path d="M5.5 12.2308V16M5.5 12.2308L2 10.6154M5.5 12.2308L9 10.6154M5.5 16L2 14.3846V10.6154M5.5 16L9 14.3846V10.6154M2 10.6154L5.5 9L9 10.6154" stroke="#222222" stroke-width="1.1" stroke-linejoin="round"/>
</svg>
