<svg width="12" height="7" viewBox="0 0 12 7" fill="none" xmlns="http://www.w3.org/2000/svg">
<path d="M11.6244 1.19045C11.62 1.34466 11.5868 1.49668 11.5263 1.63862C11.4592 1.77854 11.3693 1.90633 11.2602 2.01676L6.61049 6.66651C6.38861 6.88045 6.0924 7 5.78418 7C5.47595 7 5.17975 6.88045 4.95787 6.66651L0.308116 2.01676C0.111319 1.7917 0.0019667 1.50341 0 1.20445C0.000244508 1.05574 0.0300913 0.908567 0.0878001 0.771508C0.145509 0.63445 0.229925 0.510251 0.336127 0.406153C0.542586 0.168746 0.834632 0.0227232 1.14843 0C1.44739 0.0019667 1.73568 0.111319 1.96074 0.308116L5.81219 4.20158L9.63563 0.378143C9.74606 0.269105 9.87385 0.179178 10.0138 0.112042C10.1601 0.049864 10.317 0.0165739 10.4759 0.0140056C10.6293 0.0135648 10.7813 0.0420737 10.9241 0.0980365C11.0715 0.152728 11.2054 0.238602 11.3166 0.349789C11.4278 0.460975 11.5137 0.594855 11.5684 0.742279C11.6145 0.886942 11.6335 1.03888 11.6244 1.19045Z" fill="#FF7E13"/>
</svg>
