<svg width="14" height="14" viewBox="0 0 14 14" fill="none" xmlns="http://www.w3.org/2000/svg">
<path fill-rule="evenodd" clip-rule="evenodd" d="M10.1487 2.9995C10.1487 6.86549 7.01466 9.9995 3.14867 9.9995C2.86476 9.9995 2.58453 9.98255 2.309 9.94956C3.30469 11.5796 5.10062 12.6665 7.14867 12.6665C10.2783 12.6665 12.8153 10.1294 12.8153 6.99983C12.8153 4.95194 11.7286 3.15614 10.0988 2.1604C10.1317 2.43574 10.1487 2.71578 10.1487 2.9995ZM8.99402 1.64013C9.09519 2.07691 9.14867 2.53196 9.14867 2.9995C9.14867 6.31321 6.46238 8.9995 3.14867 8.9995C2.68096 8.9995 2.22575 8.94598 1.78882 8.84474C1.78768 8.84448 1.78653 8.84421 1.78539 8.84394C1.74783 8.83522 1.71041 8.82614 1.67312 8.81671C1.53539 8.78188 1.39955 8.74229 1.2658 8.69812C1.00397 8.61166 0.732689 8.83808 0.81948 9.0998C0.869672 9.25115 0.925141 9.4001 0.985669 9.54642C1.00274 9.58768 1.0202 9.62872 1.03807 9.66956C1.03906 9.67183 1.04006 9.67409 1.04105 9.67636C2.07204 12.0256 4.41873 13.6665 7.14867 13.6665C10.8306 13.6665 13.8153 10.6817 13.8153 6.99983C13.8153 4.27008 12.1747 1.92352 9.8257 0.892424C9.82343 0.891429 9.82117 0.890434 9.8189 0.889442C9.77807 0.871573 9.73702 0.854102 9.69577 0.837032C9.54945 0.776492 9.40051 0.721011 9.24916 0.670807C8.98745 0.583994 8.761 0.85526 8.84745 1.11709C8.8916 1.25085 8.93118 1.38669 8.966 1.52443C8.97543 1.56171 8.9845 1.59913 8.99322 1.63669C8.99349 1.63784 8.99376 1.63898 8.99402 1.64013Z" fill="#4E4E4E"/>
</svg>
