<svg width="80" height="80" viewBox="0 0 80 80" fill="none" xmlns="http://www.w3.org/2000/svg">
<path d="M65.3431 59.8208L65.3437 59.8201C69.9278 54.466 72.45 47.5576 72.45 40.3681C72.45 35.3572 71.2159 30.4369 68.8743 26.0865L68.7111 25.7833L68.4734 26.0323L65.843 28.7875C65.7408 28.8945 65.5969 28.9222 65.4695 28.8667L65.4684 28.8663C65.3422 28.8121 65.25 28.6766 65.25 28.5163V19.6285C65.25 19.4087 65.4178 19.25 65.6 19.25H74.0852C74.2196 19.25 74.3502 19.3356 74.4071 19.48L74.4075 19.4809C74.4654 19.6263 74.4323 19.7925 74.3289 19.9011L71.9677 22.3743L71.837 22.5113L71.9334 22.6742C75.0866 28.0054 76.75 34.1104 76.75 40.3683C76.75 50.0405 72.7676 59.2581 65.8278 65.6594C65.7613 65.7203 65.6802 65.75 65.6 65.75C65.5542 65.75 65.5062 65.7397 65.4592 65.7181C65.3366 65.6598 65.25 65.526 65.25 65.3715V60.0773C65.25 59.9804 65.2838 59.8895 65.3431 59.8208Z" fill="url(#paint0_linear_1421_1808)" stroke="#222222" stroke-width="0.5"/>
<path d="M5.59292 60.52L5.59256 60.5191C5.53463 60.3738 5.56765 60.2078 5.67081 60.0992C5.67089 60.0991 5.67099 60.099 5.67108 60.0989L8.03228 57.6256C8.10961 57.5446 8.12364 57.4221 8.06664 57.3257C4.9134 51.9945 3.25 45.8894 3.25 39.6315C3.25 29.9592 7.23245 20.7415 14.1723 14.3401C14.2753 14.2457 14.4183 14.2246 14.5415 14.281C14.6634 14.3393 14.75 14.4731 14.75 14.6275V19.9218C14.75 20.0187 14.7162 20.1096 14.6569 20.1783L14.6563 20.179C10.0722 25.5331 7.54995 32.4416 7.54995 39.6312C7.54995 44.6422 8.78409 49.5625 11.1257 53.913C11.1636 53.9835 11.233 54.0315 11.3123 54.0422C11.3917 54.0529 11.4713 54.025 11.5266 53.9671L14.157 51.2119L14.1578 51.211C14.2566 51.1066 14.4017 51.0776 14.5316 51.1331C14.6578 51.1873 14.75 51.3228 14.75 51.4831V60.371C14.75 60.5911 14.5819 60.75 14.4 60.75H5.91481C5.78044 60.75 5.64984 60.6644 5.59292 60.52Z" fill="url(#paint1_linear_1421_1808)" stroke="#222222" stroke-width="0.5" stroke-linecap="round" stroke-linejoin="round"/>
<rect x="26.375" y="7.78662" width="27.25" height="21.4853" rx="1.625" stroke="#222222" stroke-width="0.75"/>
<path d="M26.3684 14.0001H53.2631" stroke="#222222" stroke-width="0.75"/>
<path d="M34.1052 14.0001V17.1178C34.1052 17.6701 34.5529 18.1178 35.1052 18.1178H44.8947C45.447 18.1178 45.8947 17.6701 45.8947 17.1178V14.0001" stroke="#222222" stroke-width="0.75"/>
<path d="M34.1052 8.11768V5.00003C34.1052 4.44774 34.5529 4.00003 35.1052 4.00003H44.8947C45.447 4.00003 45.8947 4.44774 45.8947 5.00003V8.11768" stroke="#222222" stroke-width="0.75"/>
<rect x="26.375" y="54.1396" width="27.25" height="21.4853" rx="1.625" stroke="#222222" stroke-width="0.75"/>
<path d="M26.3684 60.3531H53.2631" stroke="#222222" stroke-width="0.75"/>
<path d="M34.1052 60.3531V63.4708C34.1052 64.0231 34.5529 64.4708 35.1052 64.4708H44.8947C45.447 64.4708 45.8947 64.0231 45.8947 63.4708V60.3531" stroke="#222222" stroke-width="0.75"/>
<path d="M34.1052 54.4707V51.3531C34.1052 50.8008 34.5529 50.3531 35.1052 50.3531H44.8947C45.447 50.3531 45.8947 50.8008 45.8947 51.3531V54.4707" stroke="#222222" stroke-width="0.75"/>
<defs>
<linearGradient id="paint0_linear_1421_1808" x1="71" y1="19" x2="71" y2="66" gradientUnits="userSpaceOnUse">
<stop offset="0.338542" stop-color="#FF5E55"/>
<stop offset="1" stop-color="#FFC978"/>
</linearGradient>
<linearGradient id="paint1_linear_1421_1808" x1="9" y1="14" x2="9" y2="61" gradientUnits="userSpaceOnUse">
<stop offset="0.338542" stop-color="#FF5E55"/>
<stop offset="1" stop-color="#FFC978"/>
</linearGradient>
</defs>
</svg>
