<svg width="36" height="36" viewBox="0 0 36 36" fill="none" xmlns="http://www.w3.org/2000/svg">
<path fill-rule="evenodd" clip-rule="evenodd" d="M16.1998 0L8.09998 18H16.1998L24.3 0H16.1998Z" fill="#C5D2DE"/>
<path fill-rule="evenodd" clip-rule="evenodd" d="M0 0L8.1 18H16.2L8.1 0H0Z" fill="#FF4A4A"/>
<path fill-rule="evenodd" clip-rule="evenodd" d="M36 21.6004C36 23.0917 34.791 24.3004 33.3 24.3004C31.8087 24.3004 30.6 23.0917 30.6 21.6004C30.6 20.1091 31.8087 18.9004 33.3 18.9004C34.791 18.9004 36 20.1091 36 21.6004Z" fill="#FF4A4A"/>
<path fill-rule="evenodd" clip-rule="evenodd" d="M27.2069 23.4004H18.9C19.8907 30.4714 25.969 35.9309 33.3 35.9309V27.803C30.4659 27.803 28.059 25.9546 27.2069 23.4004Z" fill="#FFC10D"/>
<path fill-rule="evenodd" clip-rule="evenodd" d="M27.2069 19.8002C28.059 17.2318 30.4659 15.3732 33.3 15.3732V7.2002C25.969 7.2002 19.8907 12.69 18.9 19.8002H27.2069Z" fill="#FFC10D"/>
</svg>
