<svg width="264" height="273" viewBox="0 0 264 273" fill="none" xmlns="http://www.w3.org/2000/svg">
<rect y="123" width="150" height="150" rx="75" fill="url(#paint0_linear_1408_19829)"/>
<rect x="189" width="75" height="75" rx="37.5" fill="url(#paint1_linear_1408_19829)"/>
<path d="M255.908 37.656H36.3641V211.796H255.908V37.656Z" fill="white"/>
<path d="M36.8641 211.296V38.156H255.408V211.296H96.3806H59.5785H36.8641Z" fill="#FFF8E6" stroke="url(#paint2_linear_1408_19829)"/>
<path d="M255.908 37.656H36.3641V60.439H255.908V37.656Z" fill="white"/>
<path d="M36.8641 59.939V38.156H255.408V59.939H36.8641Z" fill="#EBEBEB"/>
<path d="M36.8641 59.939V38.156H255.408V59.939H36.8641Z" stroke="black"/>
<path d="M36.8641 59.939V38.156H255.408V59.939H36.8641Z" stroke="url(#paint3_linear_1408_19829)"/>
<path d="M249.18 41.2854H240.781C239.589 41.2854 238.623 42.4648 238.623 43.9196V54.175C238.623 55.6298 239.589 56.8092 240.781 56.8092H249.18C250.372 56.8092 251.338 55.6298 251.338 54.175V43.9196C251.338 42.4648 250.372 41.2854 249.18 41.2854Z" fill="white"/>
<path d="M233.583 41.2854H225.217C224.016 41.2854 223.043 42.4738 223.043 43.9397V54.1549C223.043 55.6208 224.016 56.8092 225.217 56.8092H233.583C234.784 56.8092 235.757 55.6208 235.757 54.1549V43.9397C235.757 42.4738 234.784 41.2854 233.583 41.2854Z" fill="white"/>
<path d="M218.019 41.2854H209.62C208.428 41.2854 207.462 42.4648 207.462 43.9196V54.175C207.462 55.6298 208.428 56.8092 209.62 56.8092H218.019C219.211 56.8092 220.177 55.6298 220.177 54.175V43.9196C220.177 42.4648 219.211 41.2854 218.019 41.2854Z" fill="white"/>
<path d="M243.375 70.4934H48.8978C46.5237 70.4934 44.5991 72.8432 44.5991 75.7418V196.494C44.5991 199.392 46.5237 201.742 48.8978 201.742H243.375C245.749 201.742 247.673 199.392 247.673 196.494V75.7418C247.673 72.8432 245.749 70.4934 243.375 70.4934Z" fill="white" stroke="url(#paint4_linear_1408_19829)" stroke-width="0.5" stroke-linecap="round" stroke-linejoin="round"/>
<path d="M234.909 159.716H220.473C220.036 159.716 219.618 159.504 219.309 159.127C219 158.749 218.826 158.238 218.826 157.705C218.826 157.171 219 156.66 219.309 156.283C219.618 155.906 220.036 155.694 220.473 155.694H234.909C235.346 155.694 235.765 155.906 236.074 156.283C236.383 156.66 236.556 157.171 236.556 157.705C236.556 158.238 236.383 158.749 236.074 159.127C235.765 159.504 235.346 159.716 234.909 159.716Z" fill="#9693FF"/>
<path d="M234.909 173.631H194.615C194.179 173.631 193.76 173.419 193.451 173.042C193.142 172.665 192.969 172.153 192.969 171.62C192.969 171.086 193.142 170.575 193.451 170.198C193.76 169.821 194.179 169.609 194.615 169.609H234.909C235.346 169.609 235.765 169.821 236.074 170.198C236.383 170.575 236.556 171.086 236.556 171.62C236.556 172.153 236.383 172.665 236.074 173.042C235.765 173.419 235.346 173.631 234.909 173.631Z" fill="#9693FF"/>
<path d="M234.909 187.536H146.136C145.699 187.536 145.281 187.324 144.972 186.947C144.663 186.57 144.489 186.058 144.489 185.525C144.489 184.991 144.663 184.48 144.972 184.103C145.281 183.726 145.699 183.514 146.136 183.514H234.909C235.346 183.514 235.765 183.726 236.074 184.103C236.383 184.48 236.556 184.991 236.556 185.525C236.556 186.058 236.383 186.57 236.074 186.947C235.765 187.324 235.346 187.536 234.909 187.536Z" fill="#9693FF"/>
<path d="M59.8338 145.81H53.1059C52.669 145.81 52.2501 145.598 51.9413 145.221C51.6324 144.844 51.4589 144.333 51.4589 143.799C51.4589 143.266 51.6324 142.755 51.9413 142.378C52.2501 142 52.669 141.789 53.1059 141.789H59.8338C60.2706 141.789 60.6896 142 60.9984 142.378C61.3073 142.755 61.4808 143.266 61.4808 143.799C61.4808 144.333 61.3073 144.844 60.9984 145.221C60.6896 145.598 60.2706 145.81 59.8338 145.81Z" fill="#FFF8E6"/>
<path d="M59.8338 159.716H53.1059C52.669 159.716 52.2501 159.504 51.9413 159.127C51.6324 158.749 51.4589 158.238 51.4589 157.705C51.4589 157.171 51.6324 156.66 51.9413 156.283C52.2501 155.906 52.669 155.694 53.1059 155.694H59.8338C60.2706 155.694 60.6896 155.906 60.9984 156.283C61.3073 156.66 61.4808 157.171 61.4808 157.705C61.4808 158.238 61.3073 158.749 60.9984 159.127C60.6896 159.504 60.2706 159.716 59.8338 159.716Z" fill="#FFF8E6"/>
<path d="M59.8338 173.631H53.1059C52.669 173.631 52.2501 173.419 51.9413 173.042C51.6324 172.665 51.4589 172.153 51.4589 171.62C51.4589 171.086 51.6324 170.575 51.9413 170.198C52.2501 169.821 52.669 169.609 53.1059 169.609H59.8338C60.2706 169.609 60.6896 169.821 60.9984 170.198C61.3073 170.575 61.4808 171.086 61.4808 171.62C61.4808 172.153 61.3073 172.665 60.9984 173.042C60.6896 173.419 60.2706 173.631 59.8338 173.631Z" fill="#FFF8E6"/>
<path d="M59.8338 187.536H53.1059C52.669 187.536 52.2501 187.324 51.9413 186.947C51.6324 186.57 51.4589 186.058 51.4589 185.525C51.4589 184.991 51.6324 184.48 51.9413 184.103C52.2501 183.726 52.669 183.514 53.1059 183.514H59.8338C60.2706 183.514 60.6896 183.726 60.9984 184.103C61.3073 184.48 61.4808 184.991 61.4808 185.525C61.4808 186.058 61.3073 186.57 60.9984 186.947C60.6896 187.324 60.2706 187.536 59.8338 187.536Z" fill="#FFF8E6"/>
<g opacity="0.7">
<path d="M59.8338 145.81H53.1059C52.669 145.81 52.2501 145.598 51.9413 145.221C51.6324 144.844 51.4589 144.333 51.4589 143.799C51.4589 143.266 51.6324 142.755 51.9413 142.378C52.2501 142 52.669 141.789 53.1059 141.789H59.8338C60.2706 141.789 60.6896 142 60.9984 142.378C61.3073 142.755 61.4808 143.266 61.4808 143.799C61.4808 144.333 61.3073 144.844 60.9984 145.221C60.6896 145.598 60.2706 145.81 59.8338 145.81Z" fill="#D9D8EE"/>
</g>
<g opacity="0.7">
<path d="M59.8338 159.716H53.1059C52.669 159.716 52.2501 159.504 51.9413 159.127C51.6324 158.749 51.4589 158.238 51.4589 157.705C51.4589 157.171 51.6324 156.66 51.9413 156.283C52.2501 155.906 52.669 155.694 53.1059 155.694H59.8338C60.2706 155.694 60.6896 155.906 60.9984 156.283C61.3073 156.66 61.4808 157.171 61.4808 157.705C61.4808 158.238 61.3073 158.749 60.9984 159.127C60.6896 159.504 60.2706 159.716 59.8338 159.716Z" fill="#D9D8EE"/>
</g>
<g opacity="0.7">
<path d="M59.8338 173.631H53.1059C52.669 173.631 52.2501 173.419 51.9413 173.042C51.6324 172.665 51.4589 172.153 51.4589 171.62C51.4589 171.086 51.6324 170.575 51.9413 170.198C52.2501 169.821 52.669 169.609 53.1059 169.609H59.8338C60.2706 169.609 60.6896 169.821 60.9984 170.198C61.3073 170.575 61.4808 171.086 61.4808 171.62C61.4808 172.153 61.3073 172.665 60.9984 173.042C60.6896 173.419 60.2706 173.631 59.8338 173.631Z" fill="#D9D8EE"/>
</g>
<g opacity="0.7">
<path d="M59.8338 187.536H53.1059C52.669 187.536 52.2501 187.324 51.9413 186.947C51.6324 186.57 51.4589 186.058 51.4589 185.525C51.4589 184.991 51.6324 184.48 51.9413 184.103C52.2501 183.726 52.669 183.514 53.1059 183.514H59.8338C60.2706 183.514 60.6896 183.726 60.9984 184.103C61.3073 184.48 61.4808 184.991 61.4808 185.525C61.4808 186.058 61.3073 186.57 60.9984 186.947C60.6896 187.324 60.2706 187.536 59.8338 187.536Z" fill="#D9D8EE"/>
</g>
<path d="M194.616 131.895H53.1059C52.669 131.895 52.2501 131.684 51.9413 131.307C51.6324 130.929 51.4589 130.418 51.4589 129.885C51.4589 129.351 51.6324 128.84 51.9413 128.463C52.2501 128.086 52.669 127.874 53.1059 127.874H194.616C195.052 127.874 195.471 128.086 195.78 128.463C196.089 128.84 196.263 129.351 196.263 129.885C196.263 130.418 196.089 130.929 195.78 131.307C195.471 131.684 195.052 131.895 194.616 131.895Z" fill="#D9D8EE"/>
<path d="M234.909 104.084H220.473C220.036 104.084 219.618 103.873 219.309 103.495C219 103.118 218.826 102.607 218.826 102.074C218.826 101.54 219 101.029 219.309 100.652C219.618 100.275 220.036 100.063 220.473 100.063H234.909C235.346 100.063 235.765 100.275 236.074 100.652C236.383 101.029 236.556 101.54 236.556 102.074C236.556 102.607 236.383 103.118 236.074 103.495C235.765 103.873 235.346 104.084 234.909 104.084Z" fill="#D9D8EE"/>
<path d="M214.437 104.084H200.652C200.215 104.084 199.796 103.873 199.487 103.495C199.178 103.118 199.005 102.607 199.005 102.074C199.005 101.54 199.178 101.029 199.487 100.652C199.796 100.275 200.215 100.063 200.652 100.063H214.437C214.874 100.063 215.293 100.275 215.602 100.652C215.911 101.029 216.084 101.54 216.084 102.074C216.084 102.607 215.911 103.118 215.602 103.495C215.293 103.873 214.874 104.084 214.437 104.084Z" fill="#D9D8EE"/>
<path d="M194.616 104.084H53.1059C52.669 104.084 52.2501 103.873 51.9413 103.495C51.6324 103.118 51.4589 102.607 51.4589 102.074C51.4589 101.54 51.6324 101.029 51.9413 100.652C52.2501 100.275 52.669 100.063 53.1059 100.063H194.616C195.052 100.063 195.471 100.275 195.78 100.652C196.089 101.029 196.263 101.54 196.263 102.074C196.263 102.607 196.089 103.118 195.78 103.495C195.471 103.873 195.052 104.084 194.616 104.084Z" fill="#D9D8EE"/>
<path d="M234.909 145.81H220.473C220.036 145.81 219.618 145.598 219.309 145.221C219 144.844 218.826 144.333 218.826 143.799C218.826 143.266 219 142.755 219.309 142.378C219.618 142 220.036 141.789 220.473 141.789H234.909C235.346 141.789 235.765 142 236.074 142.378C236.383 142.755 236.556 143.266 236.556 143.799C236.556 144.333 236.383 144.844 236.074 145.221C235.765 145.598 235.346 145.81 234.909 145.81Z" fill="#D4D3FF"/>
<path d="M214.437 145.81H67.2453C66.8085 145.81 66.3895 145.598 66.0807 145.221C65.7718 144.844 65.5983 144.333 65.5983 143.799C65.5983 143.266 65.7718 142.755 66.0807 142.378C66.3895 142 66.8085 141.789 67.2453 141.789H214.437C214.874 141.789 215.293 142 215.602 142.378C215.911 142.755 216.084 143.266 216.084 143.799C216.084 144.333 215.911 144.844 215.602 145.221C215.293 145.598 214.874 145.81 214.437 145.81Z" fill="#D4D3FF"/>
<path d="M109.515 159.716H67.2453C66.8085 159.716 66.3895 159.504 66.0807 159.127C65.7718 158.749 65.5983 158.238 65.5983 157.705C65.5983 157.171 65.7718 156.66 66.0807 156.283C66.3895 155.906 66.8085 155.694 67.2453 155.694H109.515C109.952 155.694 110.371 155.906 110.68 156.283C110.989 156.66 111.162 157.171 111.162 157.705C111.162 158.238 110.989 158.749 110.68 159.127C110.371 159.504 109.952 159.716 109.515 159.716Z" fill="#D4D3FF"/>
<path d="M109.515 173.631H67.2453C66.8085 173.631 66.3895 173.419 66.0807 173.042C65.7718 172.665 65.5983 172.153 65.5983 171.62C65.5983 171.086 65.7718 170.575 66.0807 170.198C66.3895 169.821 66.8085 169.609 67.2453 169.609H109.515C109.952 169.609 110.371 169.821 110.68 170.198C110.989 170.575 111.162 171.086 111.162 171.62C111.162 172.153 110.989 172.665 110.68 173.042C110.371 173.419 109.952 173.631 109.515 173.631Z" fill="#D4D3FF"/>
<path d="M109.515 187.536H67.2453C66.8085 187.536 66.3895 187.324 66.0807 186.947C65.7718 186.57 65.5983 186.058 65.5983 185.525C65.5983 184.991 65.7718 184.48 66.0807 184.103C66.3895 183.726 66.8085 183.514 67.2453 183.514H109.515C109.952 183.514 110.371 183.726 110.68 184.103C110.989 184.48 111.162 184.991 111.162 185.525C111.162 186.058 110.989 186.57 110.68 186.947C110.371 187.324 109.952 187.536 109.515 187.536Z" fill="#D4D3FF"/>
<defs>
<linearGradient id="paint0_linear_1408_19829" x1="75" y1="123" x2="75" y2="273" gradientUnits="userSpaceOnUse">
<stop offset="0.338542" stop-color="#FA6259"/>
<stop offset="1" stop-color="#FFC269"/>
</linearGradient>
<linearGradient id="paint1_linear_1408_19829" x1="226.5" y1="0" x2="226.5" y2="75" gradientUnits="userSpaceOnUse">
<stop offset="0.338542" stop-color="#FA6259"/>
<stop offset="1" stop-color="#FFC269"/>
</linearGradient>
<linearGradient id="paint2_linear_1408_19829" x1="150" y1="211.5" x2="151.5" y2="38" gradientUnits="userSpaceOnUse">
<stop stop-color="#FFAAA5"/>
<stop offset="1" stop-color="#FFE9CD"/>
</linearGradient>
<linearGradient id="paint3_linear_1408_19829" x1="174" y1="38" x2="176.419" y2="59.8429" gradientUnits="userSpaceOnUse">
<stop stop-color="#FFAAA5"/>
<stop offset="1" stop-color="#FFE9CD"/>
</linearGradient>
<linearGradient id="paint4_linear_1408_19829" x1="149.71" y1="201.519" x2="150.631" y2="70.7494" gradientUnits="userSpaceOnUse">
<stop stop-color="#FFAAA5"/>
<stop offset="1" stop-color="#FFE9CD"/>
</linearGradient>
</defs>
</svg>
