<svg width="15" height="14" viewBox="0 0 15 14" fill="none" xmlns="http://www.w3.org/2000/svg">
<path fill-rule="evenodd" clip-rule="evenodd" d="M5.98218 0.333008C2.94461 0.333008 0.482178 2.79544 0.482178 5.83301C0.482178 8.87057 2.94461 11.333 5.98218 11.333C7.32093 11.333 8.54796 10.8547 9.50171 10.0596L13.2953 13.8532C13.4906 14.0485 13.8071 14.0485 14.0024 13.8532C14.1977 13.658 14.1977 13.3414 14.0024 13.1461L10.2088 9.35254C11.0039 8.39879 11.4822 7.17176 11.4822 5.83301C11.4822 2.79544 9.01974 0.333008 5.98218 0.333008ZM1.48218 5.83301C1.48218 3.34773 3.4969 1.33301 5.98218 1.33301C8.46746 1.33301 10.4822 3.34773 10.4822 5.83301C10.4822 8.31829 8.46746 10.333 5.98218 10.333C3.4969 10.333 1.48218 8.31829 1.48218 5.83301Z" fill="#4E4E4E"/>
</svg>
