<svg width="80" height="80" viewBox="0 0 80 80" fill="none" xmlns="http://www.w3.org/2000/svg">
<g clip-path="url(#clip0_1421_547)">
<path d="M43.8437 33.5186C43.8282 33.4487 43.7978 33.3829 43.7547 33.3258C43.7116 33.2686 43.6567 33.2214 43.5937 33.1873L42.1062 32.3623C42.0265 32.2006 41.9367 32.0441 41.8375 31.8936L41.8687 30.1936C41.8693 30.1223 41.8552 30.0516 41.8272 29.986C41.7992 29.9204 41.7581 29.8613 41.7062 29.8123C40.9656 29.1408 40.0897 28.6357 39.1375 28.3311C39.0691 28.3097 38.997 28.3032 38.9259 28.3118C38.8547 28.3204 38.7863 28.344 38.725 28.3811L37.2687 29.2561C37.0875 29.2498 36.9125 29.2498 36.7312 29.2561L35.275 28.3811C35.2137 28.344 35.1452 28.3204 35.0741 28.3118C35.003 28.3032 34.9308 28.3097 34.8625 28.3311C33.909 28.6359 33.0327 29.1434 32.2937 29.8186C32.2414 29.8658 32.1999 29.9238 32.1718 29.9885C32.1438 30.0531 32.13 30.1231 32.1312 30.1936L32.1625 31.8936C32.0625 32.0436 31.975 32.1998 31.8875 32.3623L30.4 33.1873C30.3379 33.2218 30.284 33.2692 30.242 33.3263C30.1999 33.3835 30.1707 33.4491 30.1562 33.5186C29.9437 34.4946 29.9437 35.505 30.1562 36.4811C30.1717 36.5509 30.2021 36.6167 30.2452 36.6738C30.2884 36.731 30.3433 36.7782 30.4062 36.8123L31.8937 37.6373C31.9735 37.799 32.0632 37.9556 32.1625 38.1061L32.1312 39.8061C32.1306 39.8774 32.1448 39.948 32.1727 40.0136C32.2007 40.0792 32.2419 40.1383 32.2937 40.1873C33.0344 40.8588 33.9103 41.3639 34.8625 41.6686C34.9308 41.6899 35.003 41.6964 35.0741 41.6878C35.1452 41.6792 35.2137 41.6556 35.275 41.6186L36.7312 40.7436H37.2687L38.7312 41.6186C38.8072 41.6685 38.8965 41.6947 38.9875 41.6936C39.0383 41.6914 39.0887 41.683 39.1375 41.6686C40.0909 41.3637 40.9672 40.8562 41.7062 40.1811C41.7585 40.1338 41.8001 40.0758 41.8281 40.0112C41.8561 39.9465 41.87 39.8765 41.8687 39.8061L41.8375 38.1061C41.9375 37.9561 42.025 37.7998 42.1125 37.6373L43.6 36.8123C43.662 36.7779 43.7159 36.7304 43.758 36.6733C43.8 36.6161 43.8293 36.5505 43.8437 36.4811C44.0562 35.505 44.0562 34.4946 43.8437 33.5186ZM37 37.7498C36.4561 37.7498 35.9244 37.5885 35.4721 37.2863C35.0199 36.9842 34.6674 36.5547 34.4593 36.0522C34.2512 35.5497 34.1967 34.9968 34.3028 34.4633C34.4089 33.9299 34.6708 33.4399 35.0554 33.0553C35.44 32.6707 35.93 32.4088 36.4635 32.3026C36.9969 32.1965 37.5498 32.251 38.0523 32.4591C38.5548 32.6673 38.9843 33.0198 39.2865 33.472C39.5887 33.9242 39.75 34.4559 39.75 34.9998C39.75 35.7292 39.4602 36.4286 38.9445 36.9443C38.4288 37.4601 37.7293 37.7498 37 37.7498Z" fill="url(#paint0_linear_1421_547)"/>
</g>
<path d="M75.4115 0.875C77.448 0.875 79.125 2.59963 79.125 4.7598V75.2402C79.125 77.4004 77.448 79.125 75.4115 79.125H4.58853C2.55196 79.125 0.875 77.4004 0.875 75.2402V4.7598C0.875 2.59963 2.55196 0.875 4.58853 0.875H75.4115Z" stroke="#222222" stroke-width="0.75"/>
<path d="M1 11.5L79 11.5" stroke="#222222" stroke-width="0.75"/>
<circle cx="6.00098" cy="6" r="1" fill="#222222" stroke="#222222"/>
<circle cx="12.001" cy="6" r="1" fill="#222222" stroke="#222222"/>
<circle cx="18.001" cy="6" r="1" fill="#222222" stroke="#222222"/>
<circle cx="31.0845" cy="56.34" r="2" fill="url(#paint1_linear_1421_547)"/>
<circle cx="45.2529" cy="56.34" r="2" fill="url(#paint2_linear_1421_547)"/>
<path d="M52.6304 36.0097C52.6274 36.0201 52.6247 36.0285 52.6227 36.0346L52.6118 36.055L52.6006 36.0996L49.289 49.2623C49.0421 50.2436 48.2007 50.9279 47.2363 50.9655L47.1484 50.9672H29.0262C28.1326 50.9672 27.3209 50.4104 26.9809 49.548L22.5382 38.2806C22.0756 37.1073 22.6308 35.7803 23.7583 35.3117C24.0208 35.2027 24.3009 35.1467 24.5835 35.1467H52.1085C52.3765 35.1467 52.4997 35.2145 52.5576 35.266C52.6173 35.319 52.6574 35.399 52.6747 35.5156C52.6923 35.6343 52.6818 35.7656 52.6611 35.878C52.6511 35.9325 52.6395 35.9781 52.6304 36.0097ZM52.6193 36.0446C52.6184 36.0472 52.618 36.0484 52.618 36.0483C52.6179 36.0482 52.6184 36.0469 52.6193 36.0446Z" stroke="#222222" stroke-width="0.75"/>
<path d="M59.8329 29.9536C58.0294 29.9536 55.8246 29.9536 54.1553 29.9536L52.6499 35.8627" stroke="#222222" stroke-width="0.75" stroke-linecap="round"/>
<defs>
<linearGradient id="paint0_linear_1421_547" x1="37" y1="28.3081" x2="37" y2="41.6936" gradientUnits="userSpaceOnUse">
<stop offset="0.338542" stop-color="#FF5E55"/>
<stop offset="1" stop-color="#FFC978"/>
</linearGradient>
<linearGradient id="paint1_linear_1421_547" x1="31.0845" y1="54.34" x2="31.0845" y2="58.34" gradientUnits="userSpaceOnUse">
<stop offset="0.338542" stop-color="#FF5E55"/>
<stop offset="1" stop-color="#FFC978"/>
</linearGradient>
<linearGradient id="paint2_linear_1421_547" x1="45.2529" y1="54.34" x2="45.2529" y2="58.34" gradientUnits="userSpaceOnUse">
<stop offset="0.338542" stop-color="#FF5E55"/>
<stop offset="1" stop-color="#FFC978"/>
</linearGradient>
<clipPath id="clip0_1421_547">
<rect width="14" height="7" fill="white" transform="translate(30 28)"/>
</clipPath>
</defs>
</svg>
