<svg width="20" height="20" viewBox="0 0 20 20" fill="none" xmlns="http://www.w3.org/2000/svg">
<path fill-rule="evenodd" clip-rule="evenodd" d="M2.5 2.50016C2.5 1.57969 3.24619 0.833496 4.16667 0.833496H12.4852C12.9272 0.833496 13.3511 1.00909 13.6637 1.32165L17.0118 4.66979C17.3244 4.98235 17.5 5.40627 17.5 5.8483V17.5002C17.5 18.4206 16.7538 19.1668 15.8333 19.1668H3.95833C3.61316 19.1668 3.33333 18.887 3.33333 18.5418C3.33333 18.1967 3.61316 17.9168 3.95833 17.9168H15.8333C16.0635 17.9168 16.25 17.7303 16.25 17.5002V7.0835H12.9167C11.9962 7.0835 11.25 6.3373 11.25 5.41683V2.0835H4.16667C3.93655 2.0835 3.75 2.27004 3.75 2.50016V7.7085C3.75 8.05367 3.47018 8.3335 3.125 8.3335C2.77982 8.3335 2.5 8.05367 2.5 7.7085V2.50016ZM12.5 2.08376V5.41683C12.5 5.64695 12.6865 5.8335 12.9167 5.8335H16.2497C16.246 5.72837 16.2026 5.62832 16.128 5.55367L12.7798 2.20553C12.7052 2.13089 12.6051 2.08749 12.5 2.08376Z" fill="#222222"/>
<path fill-rule="evenodd" clip-rule="evenodd" d="M6.27002 11.75C6.96038 11.75 7.52002 11.1904 7.52002 10.5C7.52002 9.80964 6.96038 9.25 6.27002 9.25C5.57966 9.25 5.02002 9.80964 5.02002 10.5C5.02002 11.1904 5.57966 11.75 6.27002 11.75ZM6.27002 13C7.65073 13 8.77002 11.8807 8.77002 10.5C8.77002 9.11929 7.65073 8 6.27002 8C4.88931 8 3.77002 9.11929 3.77002 10.5C3.77002 11.8807 4.88931 13 6.27002 13Z" fill="#222222"/>
<path fill-rule="evenodd" clip-rule="evenodd" d="M6.27002 13.25C5.84322 13.25 5.42061 13.3341 5.0263 13.4974C4.63199 13.6607 4.27371 13.9001 3.97192 14.2019C3.67013 14.5037 3.43074 14.862 3.26741 15.2563C3.10408 15.6506 3.02002 16.0732 3.02002 16.5H1.77002C1.77002 15.9091 1.88642 15.3239 2.11256 14.7779C2.33871 14.232 2.67018 13.7359 3.08804 13.318C3.5059 12.9002 4.00198 12.5687 4.54794 12.3425C5.09391 12.1164 5.67907 12 6.27002 12C6.86097 12 7.44613 12.1164 7.99209 12.3425C8.53806 12.5687 9.03414 12.9002 9.452 13.318C9.86986 13.7359 10.2013 14.232 10.4275 14.7779C10.6536 15.3239 10.77 15.9091 10.77 16.5H9.52002C9.52002 16.0732 9.43596 15.6506 9.27263 15.2563C9.1093 14.862 8.86991 14.5037 8.56812 14.2019C8.26633 13.9001 7.90805 13.6607 7.51374 13.4974C7.11943 13.3341 6.69682 13.25 6.27002 13.25Z" fill="#222222"/>
</svg>
