<svg width="18" height="18" viewBox="0 0 18 18" fill="none" xmlns="http://www.w3.org/2000/svg">
<path d="M0 2.78437C0 1.24661 1.34315 0 3 0H15C16.6569 0 18 1.24661 18 2.78437V12.0656C18 13.6034 16.6569 14.85 15 14.85H3C1.34315 14.85 0 13.6034 0 12.0656V2.78437Z" fill="#FF7E13"/>
<path fill-rule="evenodd" clip-rule="evenodd" d="M7.74174 3.01687C8.07629 3.02825 8.36221 3.24403 8.44243 3.54569L9.79823 8.6437L10.5495 7.74176C10.6915 7.57124 10.9106 7.47141 11.1429 7.47141H15C15.4142 7.47141 15.75 7.78306 15.75 8.1675C15.75 8.55194 15.4142 8.86359 15 8.86359H11.511L10.0355 10.6351C9.85947 10.8464 9.56874 10.9456 9.28719 10.8905C9.00564 10.8353 8.78292 10.6355 8.71396 10.3762L7.61445 6.24187L6.87094 8.358C6.7703 8.64444 6.48252 8.83828 6.15789 8.83828H3C2.58579 8.83828 2.25 8.52663 2.25 8.14219C2.25 7.75775 2.58579 7.44609 3 7.44609H5.6136L7.00124 3.49669C7.10503 3.20129 7.40719 3.0055 7.74174 3.01687Z" fill="white"/>
<path d="M4.5 17.1C4.5 16.6029 4.94772 16.2 5.5 16.2H12.5C13.0523 16.2 13.5 16.6029 13.5 17.1C13.5 17.5971 13.0523 18 12.5 18H5.5C4.94772 18 4.5 17.5971 4.5 17.1Z" fill="#B34400"/>
</svg>
