<svg width="18" height="13" viewBox="0 0 18 13" fill="none" xmlns="http://www.w3.org/2000/svg">
<path d="M0.75 12.5C0.335787 12.5 0 12.1642 0 11.75C0 11.3358 0.335786 11 0.75 11H17.25C17.6642 11 18 11.3358 18 11.75C18 12.1642 17.6642 12.5 17.25 12.5H0.75ZM0.75 7.25C0.335787 7.25 0 6.91421 0 6.5C0 6.08579 0.335786 5.75 0.75 5.75H17.25C17.6642 5.75 18 6.08579 18 6.5C18 6.91421 17.6642 7.25 17.25 7.25H0.75ZM0.75 2C0.335787 2 0 1.66421 0 1.25C0 0.835786 0.335786 0.5 0.75 0.5H17.25C17.6642 0.5 18 0.835786 18 1.25C18 1.66421 17.6642 2 17.25 2H0.75Z" fill="#BCBDC0"/>
</svg>
