  0
SECTION
  2
HEADER
  9
$ACADVER
  1
AC1014
  9
$ACADMAINTVER
 70
     0
  9
$DWGCODEPAGE
  3
ANSI_1251
  9
$INSBASE
 10
0.0
 20
0.0
 30
0.0
  9
$EXTMIN
 10
0.0
 20
0.0
 30
0.0
  9
$EXTMAX
 10
604.6
 20
297.0
 30
0.0
  9
$LIMMIN
 10
0.0
 20
0.0
  9
$LIMMAX
 10
12.0
 20
9.0
  9
$ORTHOMODE
 70
     0
  9
$REGENMODE
 70
     1
  9
$FILLMODE
 70
     0
  9
$QTEXTMODE
 70
     0
  9
$MIRRTEXT
 70
     1
  9
$DRAGMODE
 70
     2
  9
$LTSCALE
 40
1.0
  9
$OSMODE
 70
    37
  9
$ATTMODE
 70
     1
  9
$TEXTSIZE
 40
0.2
  9
$TRACEWID
 40
0.05
  9
$TEXTSTYLE
  7
STANDARD
  9
$CLAYER
  8
0
  9
$CELTYPE
  6
BYLAYER
  9
$CECOLOR
 62
   256
  9
$CELTSCALE
 40
1.0
  9
$DELOBJ
 70
     1
  9
$DISPSILH
 70
     0
  9
$DIMSCALE
 40
1.0
  9
$DIMASZ
 40
0.18
  9
$DIMEXO
 40
0.0625
  9
$DIMDLI
 40
0.38
  9
$DIMRND
 40
0.0
  9
$DIMDLE
 40
0.0
  9
$DIMEXE
 40
0.18
  9
$DIMTP
 40
0.0
  9
$DIMTM
 40
0.0
  9
$DIMTXT
 40
0.18
  9
$DIMCEN
 40
0.09
  9
$DIMTSZ
 40
0.0
  9
$DIMTOL
 70
     0
  9
$DIMLIM
 70
     0
  9
$DIMTIH
 70
     0
  9
$DIMTOH
 70
     0
  9
$DIMSE1
 70
     0
  9
$DIMSE2
 70
     0
  9
$DIMTAD
 70
     1
  9
$DIMZIN
 70
     0
  9
$DIMBLK
  1

  9
$DIMASO
 70
     1
  9
$DIMSHO
 70
     1
  9
$DIMPOST
  1

  9
$DIMAPOST
  1

  9
$DIMALT
 70
     0
  9
$DIMALTD
 70
     2
  9
$DIMALTF
 40
25.4
  9
$DIMLFAC
 40
1.0
  9
$DIMTOFL
 70
     0
  9
$DIMTVP
 40
0.0
  9
$DIMTIX
 70
     0
  9
$DIMSOXD
 70
     0
  9
$DIMSAH
 70
     0
  9
$DIMBLK1
  1

  9
$DIMBLK2
  1

  9
$DIMSTYLE
  2
STANDARD
  9
$DIMCLRD
 70
     0
  9
$DIMCLRE
 70
     0
  9
$DIMCLRT
 70
     0
  9
$DIMTFAC
 40
1.0
  9
$DIMGAP
 40
0.09
  9
$DIMJUST
 70
     0
  9
$DIMSD1
 70
     0
  9
$DIMSD2
 70
     0
  9
$DIMTOLJ
 70
     1
  9
$DIMTZIN
 70
     0
  9
$DIMALTZ
 70
     0
  9
$DIMALTTZ
 70
     0
  9
$DIMFIT
 70
     5
  9
$DIMUPT
 70
     0
  9
$DIMUNIT
 70
     2
  9
$DIMDEC
 70
     2
  9
$DIMTDEC
 70
     4
  9
$DIMALTU
 70
     2
  9
$DIMALTTD
 70
     2
  9
$DIMTXSTY
  7
STANDARD
  9
$DIMAUNIT
 70
     0
  9
$LUNITS
 70
     2
  9
$LUPREC
 70
     4
  9
$SKETCHINC
 40
0.1
  9
$FILLETRAD
 40
0.5
  9
$AUNITS
 70
     0
  9
$AUPREC
 70
     0
  9
$MENU
  1
.
  9
$ELEVATION
 40
0.0
  9
$PELEVATION
 40
0.0
  9
$THICKNESS
 40
0.0
  9
$LIMCHECK
 70
     0
  9
$BLIPMODE
 70
     0
  9
$CHAMFERA
 40
0.5
  9
$CHAMFERB
 40
0.5
  9
$CHAMFERC
 40
1.0
  9
$CHAMFERD
 40
0.0
  9
$SKPOLY
 70
     0
  9
$TDCREATE
 40
2450772.666465926
  9
$TDUPDATE
 40
2460223.536655093
  9
$TDINDWG
 40
0.0011680671
  9
$TDUSRTIMER
 40
0.0011564931
  9
$USRTIMER
 70
     1
  9
$ANGBASE
 50
0.0
  9
$ANGDIR
 70
     0
  9
$PDMODE
 70
     0
  9
$PDSIZE
 40
0.0
  9
$PLINEWID
 40
0.0
  9
$COORDS
 70
     1
  9
$SPLFRAME
 70
     0
  9
$SPLINETYPE
 70
     6
  9
$SPLINESEGS
 70
     8
  9
$ATTDIA
 70
     0
  9
$ATTREQ
 70
     1
  9
$HANDLING
 70
     1
  9
$HANDSEED
  5
9A
  9
$SURFTAB1
 70
     6
  9
$SURFTAB2
 70
     6
  9
$SURFTYPE
 70
     6
  9
$SURFU
 70
     6
  9
$SURFV
 70
     6
  9
$UCSNAME
  2

  9
$UCSORG
 10
0.0
 20
0.0
 30
0.0
  9
$UCSXDIR
 10
1.0
 20
0.0
 30
0.0
  9
$UCSYDIR
 10
0.0
 20
1.0
 30
0.0
  9
$PUCSNAME
  2

  9
$PUCSORG
 10
0.0
 20
0.0
 30
0.0
  9
$PUCSXDIR
 10
1.0
 20
0.0
 30
0.0
  9
$PUCSYDIR
 10
0.0
 20
1.0
 30
0.0
  9
$USERI1
 70
     0
  9
$USERI2
 70
     0
  9
$USERI3
 70
     0
  9
$USERI4
 70
     0
  9
$USERI5
 70
     0
  9
$USERR1
 40
0.0
  9
$USERR2
 40
0.0
  9
$USERR3
 40
0.0
  9
$USERR4
 40
0.0
  9
$USERR5
 40
0.0
  9
$WORLDVIEW
 70
     1
  9
$SHADEDGE
 70
     3
  9
$SHADEDIF
 70
    70
  9
$TILEMODE
 70
     1
  9
$MAXACTVP
 70
    48
  9
$PINSBASE
 10
0.0
 20
0.0
 30
0.0
  9
$PLIMCHECK
 70
     0
  9
$PEXTMIN
 10
0.0
 20
0.0
 30
0.0
  9
$PEXTMAX
 10
0.0
 20
0.0
 30
0.0
  9
$PLIMMIN
 10
0.0
 20
0.0
  9
$PLIMMAX
 10
12.0
 20
9.0
  9
$UNITMODE
 70
     0
  9
$VISRETAIN
 70
     1
  9
$PLINEGEN
 70
     0
  9
$PSLTSCALE
 70
     1
  9
$TREEDEPTH
 70
  3020
  9
$PICKSTYLE
 70
     1
  9
$CMLSTYLE
  2
STANDARD
  9
$CMLJUST
 70
     0
  9
$CMLSCALE
 40
1.0
  9
$PROXYGRAPHICS
 70
     1
  9
$MEASUREMENT
 70
     0
  0
ENDSEC
  0
SECTION
  2
CLASSES
  0
CLASS
  1
LWPOLYLINE
  2
AcDbPolyline
  3
ObjectDBX Classes
 90
       20
280
     0
281
     1
  0
CLASS
  1
IMAGE
  2
AcDbRasterImage
  3
ISM
 90
       21
280
     0
281
     1
  0
CLASS
  1
OLE2FRAME
  2
AcDbOle2Frame
  3
ObjectDBX Classes
 90
       21
280
     0
281
     1
  0
CLASS
  1
HATCH
  2
AcDbHatch
  3
ObjectDBX Classes
 90
       20
280
     0
281
     1
  0
CLASS
  1
DICTIONARYVAR
  2
AcDbDictionaryVar
  3
ObjectDBX Classes
 90
       20
280
     0
281
     0
  0
CLASS
  1
RASTERVARIABLES
  2
AcDbRasterVariables
  3
ISM
 90
       21
280
     0
281
     0
  0
CLASS
  1
IMAGEDEF
  2
AcDbRasterImageDef
  3
ISM
 90
       21
280
     0
281
     0
  0
CLASS
  1
IMAGEDEF_REACTOR
  2
AcDbRasterImageDefReactor
  3
ISM
 90
       21
280
     0
281
     0
  0
CLASS
  1
IDBUFFER
  2
AcDbIdBuffer
  3
ObjectDBX Classes
 90
       20
280
     0
281
     0
  0
CLASS
  1
SPATIAL_FILTER
  2
AcDbSpatialFilter
  3
ObjectDBX Classes
 90
       20
280
     0
281
     0
  0
CLASS
  1
XRECORD
  2
AcDbXrecord
  3
ObjectDBX Classes
 90
       21
280
     0
281
     0
  0
CLASS
  1
ACDBDICTIONARYWDFLT
  2
AcDbDictionaryWithDefault
  3
ObjectDBX Classes
 90
       22
280
     0
281
     0
  0
CLASS
  1
SCALE
  2
AcDbScale
  3
ObjectDBX Classes
 90
       27
280
     0
281
     0
  0
CLASS
  1
VISUALSTYLE
  2
AcDbVisualStyle
  3
ObjectDBX Classes
 90
       26
280
     0
281
     0
  0
CLASS
  1
MATERIAL
  2
AcDbMaterial
  3
ObjectDBX Classes
 90
       23
280
     0
281
     0
  0
CLASS
  1
TABLESTYLE
  2
AcDbTableStyle
  3
ObjectDBX Classes
 90
       25
280
     0
281
     0
  0
CLASS
  1
MLEADERSTYLE
  2
AcDbMLeaderStyle
  3
ACDB_MLEADERSTYLE_CLASS
 90
       27
280
     0
281
     0
  0
CLASS
  1
SORTENTSTABLE
  2
AcDbSortentsTable
  3
"AutoCAD"
 90
        0
280
     0
281
     0
  0
CLASS
  1
LAYER_INDEX
  2
AcDbLayerIndex
  3
"Acad"
 90
        0
280
     0
281
     0
  0
CLASS
  1
SPATIAL_INDEX
  2
AcDbSpatialIndex
  3
"Acad"
 90
        0
280
     0
281
     0
  0
CLASS
  1
OBJECT_PTR
  2
CAseDLPNTableRecord
  3
"ASE-LPNTableRecord"
 90
        1
280
     0
281
     0
  0
CLASS
  1
LAYOUT
  2
AcDbLayout
  3
"AutoCAD 2000"
 90
        1
280
     0
281
     0
  0
CLASS
  1
PLOTSETTINGS
  2
AcDbPlotsettings
  3
"AutoCAD 2000"
 90
        1
280
     0
281
     0
  0
CLASS
  1
ACDBPLACEHOLDER
  2
AcDbPlaceholder
  3
"AutoCAD 2000"
 90
        1
280
     0
281
     0
  0
CLASS
  1
VBA_PROJECT
  2
AcDbVbaProject
  3
"AutoCAD 2000"
 90
        1
280
     0
281
     0
  0
CLASS
  1
WIPEOUT
  2
AcDbWipeout
  3
"AutoCAD 2000"
 90
        1
280
     0
281
     1
  0
CLASS
  1
WIPEOUTVARIABLES
  2
AcDbWipeoutVariables
  3
"AutoCAD 2000"
 90
        1
280
     0
281
     0
  0
CLASS
  1
RTEXT
  2
RText
  3
RText|AutoCAD Express Tool|expresstools@autodesk.com
 90
        1
280
     0
281
     1
  0
CLASS
  1
ARCALIGNEDTEXT
  2
AcDbArcAlignedText
  3
RText|AutoCAD Express Tool|expresstools@autodesk.com
 90
        1
280
     0
281
     1
  0
ENDSEC
  0
SECTION
  2
TABLES
  0
TABLE
  2
VPORT
  5
8
100
AcDbSymbolTable
 70
     1
  0
VPORT
  5
25
100
AcDbSymbolTableRecord
100
AcDbViewportTableRecord
  2
*ACTIVE
 70
     0
 10
0.0
 20
0.0
 11
1.0
 21
1.0
 12
302.3
 22
148.5
 13
0.0
 23
0.0
 14
0.5
 24
0.5
 15
0.5
 25
0.5
 16
0.0
 26
0.0
 36
1.0
 17
0.0
 27
0.0
 37
0.0
 40
297.0
 41
2.03569
 42
50.0
 43
0.0
 44
0.0
 50
0.0
 51
0.0
 71
     0
 72
   100
 73
     1
 74
     1
 75
     0
 76
     0
 77
     0
 78
     0
  0
ENDTAB
  0
TABLE
  2
LTYPE
  5
5
100
AcDbSymbolTable
 70
     3
  0
LTYPE
  5
12
100
AcDbSymbolTableRecord
100
AcDbLinetypeTableRecord
  2
BYBLOCK
 70
     0
  3

 72
    65
 73
     0
 40
0.0
  0
LTYPE
  5
13
100
AcDbSymbolTableRecord
100
AcDbLinetypeTableRecord
  2
BYLAYER
 70
     0
  3

 72
    65
 73
     0
 40
0.0
  0
LTYPE
  5
14
100
AcDbSymbolTableRecord
100
AcDbLinetypeTableRecord
  2
CONTINUOUS
 70
     0
  3
Solid line
 72
    65
 73
     0
 40
0.0
  0
ENDTAB
  0
TABLE
  2
LAYER
  5
2
100
AcDbSymbolTable
 70
     2
  0
LAYER
  5
E
100
AcDbSymbolTableRecord
100
AcDbLayerTableRecord
  2
0
 70
     0
 62
     7
  6
CONTINUOUS
  0
LAYER
  5
77
100
AcDbSymbolTableRecord
100
AcDbLayerTableRecord
  2
\U+0411\U+043B\U+043E\U+043A-\U+0441\U+0445\U+0435\U+043C\U+0430
 70
     0
 62
     7
  6
CONTINUOUS
  0
ENDTAB
  0
TABLE
  2
STYLE
  5
3
100
AcDbSymbolTable
 70
     1
  0
STYLE
  5
F
100
AcDbSymbolTableRecord
100
AcDbTextStyleTableRecord
  2
STANDARD
 70
     0
 40
0.0
 41
1.0
 50
0.0
 71
     0
 42
0.2
  3
txt.shx
  4

  0
ENDTAB
  0
TABLE
  2
VIEW
  5
6
100
AcDbSymbolTable
 70
     0
  0
ENDTAB
  0
TABLE
  2
UCS
  5
7
100
AcDbSymbolTable
 70
     0
  0
ENDTAB
  0
TABLE
  2
APPID
  5
9
100
AcDbSymbolTable
 70
     1
  0
APPID
  5
10
100
AcDbSymbolTableRecord
100
AcDbRegAppTableRecord
  2
ACAD
 70
     0
  0
ENDTAB
  0
TABLE
  2
DIMSTYLE
  5
A
100
AcDbSymbolTable
 70
     1
  0
DIMSTYLE
105
1D
100
AcDbSymbolTableRecord
100
AcDbDimStyleTableRecord
  2
STANDARD
 70
     0
  3

  4

  5

  6

  7

 40
1.0
 41
0.18
 42
0.0625
 43
0.38
 44
0.18
 45
0.0
 46
0.0
 47
0.0
 48
0.0
 71
     0
 72
     0
 73
     1
 74
     1
 75
     0
 76
     0
 77
     0
 78
     0
140
0.18
141
0.09
142
0.0
143
25.4
144
1.0
145
0.0
146
1.0
147
0.09
170
     0
171
     2
172
     0
173
     0
174
     0
175
     0
176
     0
177
     0
178
     0
270
     2
271
     4
272
     4
273
     2
274
     2
275
     0
280
     0
281
     0
282
     0
283
     1
284
     0
285
     0
286
     0
287
     3
288
     0
340
F
  0
ENDTAB
  0
TABLE
  2
BLOCK_RECORD
  5
1
100
AcDbSymbolTable
 70
     2
  0
BLOCK_RECORD
  5
18
100
AcDbSymbolTableRecord
100
AcDbBlockTableRecord
  2
*MODEL_SPACE
  0
BLOCK_RECORD
  5
15
100
AcDbSymbolTableRecord
100
AcDbBlockTableRecord
  2
*PAPER_SPACE
  0
BLOCK_RECORD
  5
81
100
AcDbSymbolTableRecord
100
AcDbBlockTableRecord
  2
\U+0417\U+0430\U+0434\U+0430\U+0447\U+0430
  0
BLOCK_RECORD
  5
96
100
AcDbSymbolTableRecord
100
AcDbBlockTableRecord
  2
\U+0414\U+0438\U+043D\U+0430\U+043C\U+0438\U+0447\U+0435\U+0441\U+043A\U+0430\U+044F_\U+0441\U+043E\U+0435\U+0434\U+0438\U+043D\U+0438\U+0442\U+0435\U+043B\U+044C\U+043D\U+0430\U+044F_\U+043B\U+0438\U+043D
  0
ENDTAB
  0
ENDSEC
  0
SECTION
  2
BLOCKS
  0
BLOCK
  5
19
100
AcDbEntity
  8
0
100
AcDbBlockBegin
  2
*MODEL_SPACE
 70
     0
 10
0.0
 20
0.0
 30
0.0
  3
*MODEL_SPACE
  1

  0
ENDBLK
  5
1A
100
AcDbEntity
  8
0
100
AcDbBlockEnd
  0
BLOCK
  5
16
100
AcDbEntity
 67
     1
  8
0
100
AcDbBlockBegin
  2
*PAPER_SPACE
 70
     0
 10
0.0
 20
0.0
 30
0.0
  3
*PAPER_SPACE
  1

  0
ENDBLK
  5
17
100
AcDbEntity
 67
     1
  8
0
100
AcDbBlockEnd
  0
BLOCK
  5
82
100
AcDbEntity
  8
0
100
AcDbBlockBegin
  2
\U+0417\U+0430\U+0434\U+0430\U+0447\U+0430
 70
     2
 10
0.0
 20
0.0
 30
0.0
  3
\U+0417\U+0430\U+0434\U+0430\U+0447\U+0430
  1

  0
ATTDEF
  5
83
100
AcDbEntity
  8
0
100
AcDbText
 10
50.0
 20
50.0
 30
0.0
 40
0.2
  1

100
AcDbAttributeDefinition
  3
\U+0418\U+0434\U+0435\U+043D\U+0442\U+0438\U+0444\U+0438\U+043A\U+0430\U+0442\U+043E\U+0440
  2
BPMNID
 70
     0
  0
ATTDEF
  5
84
100
AcDbEntity
  8
0
100
AcDbText
 10
50.0
 20
50.0
 30
0.0
 40
0.2
  1

100
AcDbAttributeDefinition
  3
\U+041A\U+0430\U+0442\U+0435\U+0433\U+043E\U+0440\U+0438\U+0438
  2
BPMNCATEGORIES
 70
     0
  0
ATTDEF
  5
85
100
AcDbEntity
  8
0
100
AcDbText
 10
50.0
 20
50.0
 30
0.0
 40
0.2
  1

100
AcDbAttributeDefinition
  3
\U+0414\U+043E\U+043A\U+0443\U+043C\U+0435\U+043D\U+0442\U+0430\U+0446\U+0438\U+044F
  2
BPMNDOCUMENTATION
 70
     0
  0
ATTDEF
  5
86
100
AcDbEntity
  8
0
100
AcDbText
 10
50.0
 20
50.0
 30
0.0
 40
0.2
  1

100
AcDbAttributeDefinition
  3
\U+0418\U+043C\U+044F
  2
BPMNNAME
 70
     0
  0
ATTDEF
  5
87
100
AcDbEntity
  8
0
100
AcDbText
 10
50.0
 20
50.0
 30
0.0
 40
0.2
  1
\U+0417\U+0430\U+0434\U+0430\U+0447\U+0430
100
AcDbAttributeDefinition
  3
\U+0422\U+0438\U+043F \U+0434\U+0435\U+0439\U+0441\U+0442\U+0432\U+0438\U+044F
  2
BPMNACTIVITYTYPE
 70
     0
  0
ATTDEF
  5
88
100
AcDbEntity
  8
0
100
AcDbText
 10
50.0
 20
50.0
 30
0.0
 40
0.2
  1
\U+041D\U+0435\U+0442
100
AcDbAttributeDefinition
  3
\U+0422\U+0438\U+043F \U+0446\U+0438\U+043A\U+043B\U+0430
  2
BPMNLOOPTYPE
 70
     0
  0
ATTDEF
  5
89
100
AcDbEntity
  8
0
100
AcDbText
 10
50.0
 20
50.0
 30
0.0
 40
0.2
  1
\U+041D\U+0435\U+0442
100
AcDbAttributeDefinition
  3
\U+0422\U+0438\U+043F \U+0437\U+0430\U+0434\U+0430\U+0447\U+0438
  2
BPMNTASKTYPE
 70
     0
  0
ATTDEF
  5
8A
100
AcDbEntity
  8
0
100
AcDbText
 10
50.0
 20
50.0
 30
0.0
 40
0.2
  1

100
AcDbAttributeDefinition
  3
\U+0421\U+0446\U+0435\U+043D\U+0430\U+0440\U+0438\U+0439
  2
BPMNSCRIPT
 70
     0
  0
ATTDEF
  5
8B
100
AcDbEntity
  8
0
100
AcDbText
 10
50.0
 20
50.0
 30
0.0
 40
0.2
  1
0
100
AcDbAttributeDefinition
  3
\U+0421\U+043E\U+0437\U+0434\U+0430\U+0442\U+044C \U+044D\U+043A\U+0437\U+0435\U+043C\U+043F\U+043B\U+044F\U+0440
  2
BPMNINSTANTIATE
 70
     0
  0
ATTDEF
  5
8C
100
AcDbEntity
  8
0
100
AcDbText
 10
50.0
 20
50.0
 30
0.0
 40
0.2
  1
\U+0412\U+043D\U+0435\U+0434\U+0440\U+0435\U+043D\U+043D\U+044B\U+0439
100
AcDbAttributeDefinition
  3
\U+0422\U+0438\U+043F \U+043F\U+043E\U+0434\U+043F\U+0440\U+043E\U+0446\U+0435\U+0441\U+0441\U+0430
  2
BPMNSUBPROCESSTYPE
 70
     0
  0
ATTDEF
  5
8D
100
AcDbEntity
  8
0
100
AcDbText
 10
50.0
 20
50.0
 30
0.0
 40
0.2
  1
0
100
AcDbAttributeDefinition
  3
\U+0421\U+0432\U+0435\U+0440\U+043D\U+0443\U+0442\U+043E
  2
BPMNISCOLLAPSED
 70
     0
  0
ATTDEF
  5
8E
100
AcDbEntity
  8
0
100
AcDbText
 10
50.0
 20
50.0
 30
0.0
 40
0.2
  1
0
100
AcDbAttributeDefinition
  3
\U+042F\U+0432\U+043B\U+044F\U+0435\U+0442\U+0441\U+044F \U+0442\U+0440\U+0430\U+043D\U+0437\U+0430\U+043A\U+0446\U+0438\U+0435\U+0439
  2
BPMNISATRANSACTION
 70
     0
  0
ATTDEF
  5
8F
100
AcDbEntity
  8
0
100
AcDbText
 10
50.0
 20
50.0
 30
0.0
 40
0.2
  1
0
100
AcDbAttributeDefinition
  3
\U+041F\U+0440\U+0435\U+0434\U+043D\U+0430\U+0437\U+043D\U+0430\U+0447\U+0435\U+043D\U+043E \U+0434\U+043B\U+044F \U+043A\U+043E\U+043C\U+043F\U+0435\U+043D\U+0441\U+0430\U+0446\U+0438\U+0438
  2
BPMNISFORCOMPENSATION
 70
     0
  0
ATTDEF
  5
90
100
AcDbEntity
  8
0
100
AcDbText
 10
50.0
 20
50.0
 30
0.0
 40
0.2
  1
\U+041F\U+043E\U+0434\U+043F\U+0440\U+043E\U+0446\U+0435\U+0441\U+0441
100
AcDbAttributeDefinition
  3
\U+0422\U+0438\U+043F \U+044D\U+043B\U+0435\U+043C\U+0435\U+043D\U+0442\U+0430
  2
BPMNELEMENTTYPE
 70
     0
  0
ATTDEF
  5
91
100
AcDbEntity
  8
0
100
AcDbText
 10
50.0
 20
50.0
 30
0.0
 40
0.2
  1
0
100
AcDbAttributeDefinition
  3
\U+041F\U+0440\U+044F\U+043C\U+043E\U+0439
  2
BPMNADHOC
 70
     0
  0
ATTDEF
  5
92
100
AcDbEntity
  8
0
100
AcDbText
 10
50.0
 20
50.0
 30
0.0
 40
0.2
  1
\U+041F\U+0430\U+0440\U+0430\U+043B\U+043B\U+0435\U+043B\U+044C\U+043D\U+043E
100
AcDbAttributeDefinition
  3
\U+041F\U+0440\U+044F\U+043C\U+043E\U+0439 \U+043F\U+043E\U+0440\U+044F\U+0434\U+043E\U+043A
  2
BPMNADHOCORDERING
 70
     0
  0
ATTDEF
  5
93
100
AcDbEntity
  8
0
100
AcDbText
 10
50.0
 20
50.0
 30
0.0
 40
0.2
  1
\U+041F\U+043E \U+0443\U+043C\U+043E\U+043B\U+0447\U+0430\U+043D\U+0438\U+044E
100
AcDbAttributeDefinition
  3
\U+0422\U+0438\U+043F \U+0433\U+0440\U+0430\U+043D\U+0438\U+0446
  2
BPMNBOUNDARYTYPE
 70
     0
  0
LWPOLYLINE
  5
94
100
AcDbEntity
  8
\U+0411\U+043B\U+043E\U+043A-\U+0441\U+0445\U+0435\U+043C\U+0430
  6
CONTINUOUS
100
AcDbPolyline
 90
        8
 70
     1
 10
39.5
 20
40.0
 10
60.5
 20
40.0
 42
0.414214
 10
62.5
 20
42.0
 10
62.5
 20
58.0
 42
0.414214
 10
60.5
 20
60.0
 10
39.5
 20
60.0
 42
0.414214
 10
37.5
 20
58.0
 10
37.5
 20
42.0
 42
0.414214
  0
ENDBLK
  5
95
100
AcDbEntity
  8
0
100
AcDbBlockEnd
  0
BLOCK
  5
97
100
AcDbEntity
  8
0
100
AcDbBlockBegin
  2
\U+0414\U+0438\U+043D\U+0430\U+043C\U+0438\U+0447\U+0435\U+0441\U+043A\U+0430\U+044F_\U+0441\U+043E\U+0435\U+0434\U+0438\U+043D\U+0438\U+0442\U+0435\U+043B\U+044C\U+043D\U+0430\U+044F_\U+043B\U+0438\U+043D
 70
     0
 10
0.0
 20
0.0
 30
0.0
  3
\U+0414\U+0438\U+043D\U+0430\U+043C\U+0438\U+0447\U+0435\U+0441\U+043A\U+0430\U+044F_\U+0441\U+043E\U+0435\U+0434\U+0438\U+043D\U+0438\U+0442\U+0435\U+043B\U+044C\U+043D\U+0430\U+044F_\U+043B\U+0438\U+043D
  1

  0
LWPOLYLINE
  5
98
100
AcDbEntity
  8
\U+0411\U+043B\U+043E\U+043A-\U+0441\U+0445\U+0435\U+043C\U+0430
  6
CONTINUOUS
100
AcDbPolyline
 90
        3
 70
     0
 10
30.0
 20
60.0
 10
30.0
 20
30.0
 10
60.0
 20
30.0
  0
ENDBLK
  5
99
100
AcDbEntity
  8
0
100
AcDbBlockEnd
  0
ENDSEC
  0
SECTION
  2
ENTITIES
  0
LINE
  5
74
100
AcDbEntity
  8
0
  6
CONTINUOUS
 62
   150
100
AcDbLine
 10
141.167333
 20
155.288387
 30
0.0
 11
141.027625
 21
142.868882
 31
0.0
  0
MTEXT
  5
76
100
AcDbEntity
  8
0
100
AcDbMText
 10
118.747888
 20
157.613391
 30
0.0
 40
3.995526
 41
46.250002
 71
     4
 72
     5
  1
\C7;\fCircular Std Book|b0|i0|;\H3.995526272583;List of latest orders
  0
LWPOLYLINE
  5
78
100
AcDbEntity
  8
\U+0411\U+043B\U+043E\U+043A-\U+0441\U+0445\U+0435\U+043C\U+0430
  6
CONTINUOUS
100
AcDbPolyline
 90
        8
 70
     1
 10
120.042333
 20
155.288387
 10
162.292334
 20
155.288387
 42
0.414214
 10
164.292334
 20
157.288387
 10
164.292334
 20
157.938394
 42
0.414214
 10
162.292334
 20
159.938394
 10
120.042333
 20
159.938394
 42
0.414214
 10
118.042333
 20
157.938394
 10
118.042333
 20
157.288387
 42
0.414214
  0
LINE
  5
79
100
AcDbEntity
  8
0
  6
CONTINUOUS
 62
   150
100
AcDbLine
 10
46.893498
 20
105.388384
 30
0.0
 11
58.042331
 21
105.388376
 31
0.0
  0
MTEXT
  5
7B
100
AcDbEntity
  8
0
100
AcDbMText
 10
0.747889
 20
105.288388
 30
0.0
 40
3.995526
 41
46.250002
 71
     4
 72
     5
  1
\C7;\fCircular Std Book|b0|i0|;\H3.995526272583;Account \Pmanagement menu
  0
LWPOLYLINE
  5
7C
100
AcDbEntity
  8
\U+0411\U+043B\U+043E\U+043A-\U+0441\U+0445\U+0435\U+043C\U+0430
  6
CONTINUOUS
100
AcDbPolyline
 90
        8
 70
     1
 10
2.042333
 20
102.963384
 10
44.292335
 20
102.963384
 42
0.414214
 10
46.292335
 20
104.963384
 10
46.292335
 20
105.613391
 42
0.414214
 10
44.292335
 20
107.613391
 10
2.042333
 20
107.613391
 42
0.414214
 10
0.042333
 20
105.613391
 10
0.042333
 20
104.963384
 42
0.414214
  0
LINE
  5
7D
100
AcDbEntity
  8
0
  6
CONTINUOUS
 62
   150
100
AcDbLine
 10
183.042332
 20
5.288388
 30
0.0
 11
183.042332
 21
28.523682
 31
0.0
  0
MTEXT
  5
7F
100
AcDbEntity
  8
0
100
AcDbMText
 10
183.042332
 20
2.963385
 30
0.0
 40
3.995526
 41
52.5
 71
     5
 72
     5
  1
\C7;\fCircular Std Book|b0|i0|;\H3.995526272583;Monthly expenditures
  0
LWPOLYLINE
  5
80
100
AcDbEntity
  8
\U+0411\U+043B\U+043E\U+043A-\U+0441\U+0445\U+0435\U+043C\U+0430
  6
CONTINUOUS
100
AcDbPolyline
 90
        8
 70
     1
 10
158.792332
 20
0.638382
 10
207.292332
 20
0.638382
 42
0.414214
 10
209.292332
 20
2.638382
 10
209.292332
 20
3.288388
 42
0.414214
 10
207.292332
 20
5.288388
 10
158.792332
 20
5.288388
 42
0.414214
 10
156.792332
 20
3.288388
 10
156.792332
 20
2.638382
 42
0.414214
  0
ENDSEC
  0
SECTION
  2
OBJECTS
  0
DICTIONARY
  5
C
100
AcDbDictionary
  3
ACAD_GROUP
350
D
  3
ACAD_MLINESTYLE
350
1B
  3
ACAD_SCALELIST
350
2C
  3
ACAD_VISUALSTYLE
350
51
  3
ACAD_MATERIAL
350
6A
  3
ACAD_TABLESTYLE
350
6E
  3
ACAD_MLEADERSTYLE
350
70
  0
DICTIONARY
  5
D
102
{ACAD_REACTORS
330
C
102
}
100
AcDbDictionary
  3
VISIOGROUP_0
350
75
  3
VISIOGROUP_1
350
7A
  3
VISIOGROUP_2
350
7E
  0
DICTIONARY
  5
1B
102
{ACAD_REACTORS
330
C
102
}
100
AcDbDictionary
  3
STANDARD
350
1C
  0
MLINESTYLE
  5
1C
102
{ACAD_REACTORS
330
1B
102
}
100
AcDbMlineStyle
  2
STANDARD
 70
     0
  3

 62
   256
 51
90.0
 52
90.0
 71
     2
 49
0.5
 62
   256
  6
BYLAYER
 49
-0.5
 62
   256
  6
BYLAYER
  0
DICTIONARY
  5
29
102
{ACAD_REACTORS
330
C
102
}
100
AcDbDictionary
  0
DICTIONARY
  5
2C
102
{ACAD_REACTORS
330
C
102
}
100
AcDbDictionary
  3
A0
350
2D
  3
A1
350
2E
  3
A2
350
2F
  3
A3
350
30
  3
A4
350
31
  3
A5
350
32
  3
A6
350
33
  3
A7
350
34
  3
A8
350
35
  3
A9
350
36
  3
B0
350
37
  3
B1
350
38
  3
B2
350
39
  3
B3
350
3A
  3
B4
350
3B
  3
B5
350
3C
  3
B6
350
3D
  3
B7
350
3E
  3
B8
350
3F
  3
B9
350
40
  3
C0
350
41
  3
C1
350
42
  3
C2
350
43
  3
C3
350
44
  3
C4
350
45
  3
C5
350
46
  3
C6
350
47
  3
C7
350
48
  3
C8
350
49
  3
C9
350
4A
  3
D0
350
4B
  3
D1
350
4C
  3
D2
350
4D
  0
DICTIONARY
  5
4E
102
{ACAD_REACTORS
330
C
102
}
100
AcDbDictionary
  3
MODEL
350
4F
  3
LAYOUT1
350
50
  0
DICTIONARY
  5
51
102
{ACAD_REACTORS
330
C
102
}
100
AcDbDictionary
  3
FLAT
350
52
  3
FLATWITHEDGES
350
53
  3
GOURAUD
350
54
  3
GOURAUDWITHEDGES
350
55
  3
2DWIREFRAME
350
56
  3
WIREFRAME
350
57
  3
HIDDEN
350
58
  3
BASIC
350
59
  3
REALISTIC
350
5A
  3
CONCEPTUAL
350
5B
  3
DIM
350
5C
  3
BRIGHTEN
350
5D
  3
THICKEN
350
5E
  3
LINEPATTERN
350
5F
  3
FACEPATTERN
350
60
  3
COLORCHANGE
350
61
  3
JITTEROFF
350
62
  3
OVERHANGOFF
350
63
  3
EDGECOLOROFF
350
64
  3
SHADES OF GRAY
350
65
  3
SKETCHY
350
66
  3
X-RAY
350
67
  3
SHADED WITH EDGES
350
68
  3
SHADED
350
69
  0
DICTIONARY
  5
6A
102
{ACAD_REACTORS
330
C
102
}
100
AcDbDictionary
  3
BYLAYER
350
6B
  3
BYBLOCK
350
6C
  3
GLOBAL
350
6D
  0
DICTIONARY
  5
6E
102
{ACAD_REACTORS
330
C
102
}
100
AcDbDictionary
  3
STANDARD
350
6F
  0
DICTIONARY
  5
70
102
{ACAD_REACTORS
330
C
102
}
100
AcDbDictionary
  3
STANDARD
350
71
  0
GROUP
  5
75
102
{ACAD_REACTORS
330
D
102
}
100
AcDbGroup
300
Group created by Visio.
 70
     0
 71
     1
  0
GROUP
  5
7A
102
{ACAD_REACTORS
330
D
102
}
100
AcDbGroup
300
Group created by Visio.
 70
     0
 71
     1
  0
GROUP
  5
7E
102
{ACAD_REACTORS
330
D
102
}
100
AcDbGroup
300
Group created by Visio.
 70
     0
 71
     1
  0
ENDSEC
  0
EOF
